G04 PROTEUS GERBER X2 FILE*
%TF.GenerationSoftware,Labcenter,Proteus,8.16-SP3-Build36097*%
%TF.CreationDate,2024-06-22T10:21:33+00:00*%
%TF.FileFunction,Legend,Top*%
%TF.FilePolarity,Positive*%
%TF.Part,Single*%
%TF.SameCoordinates,{24a379d5-4027-43cf-b872-4d17f73d1947}*%
%FSLAX45Y45*%
%MOMM*%
G01*
%TA.AperFunction,Profile*%
%ADD18C,0.101600*%
%TA.AperFunction,Material*%
%ADD19C,0.127000*%
%ADD70C,0.101600*%
%ADD71C,0.508000*%
%ADD20C,0.152400*%
%TD.AperFunction*%
D18*
X-6200000Y-6000000D02*
X+5800000Y-6000000D01*
X+5800000Y+6000000D01*
X-6200000Y+6000000D01*
X-6200000Y-6000000D01*
D19*
X-5298000Y-2330000D02*
X-5298000Y-2000000D01*
X-5298000Y-1101000D01*
X-5298000Y+558996D01*
X-5298000Y+1739000D01*
X-5298000Y+3004000D01*
X+4862000Y+3004000D01*
X+4862000Y-2330000D01*
X-5298000Y-2330000D01*
X-5298000Y+1739000D02*
X-5933000Y+1739000D01*
X-5933000Y+558996D01*
X-5298000Y+558996D01*
X-5298000Y-2000000D02*
X-5479000Y-2000000D01*
X-5479000Y-1101000D01*
X-5298000Y-1101000D01*
D70*
X-6040950Y+230320D02*
X-5977450Y+230320D01*
X-5964750Y+243655D01*
X-5964750Y+296995D01*
X-5977450Y+310330D01*
X-6040950Y+310330D01*
X-6015550Y+363670D02*
X-6040950Y+390340D01*
X-5964750Y+390340D01*
X-4461000Y+4727000D02*
X-4461827Y+4747483D01*
X-4468545Y+4788450D01*
X-4482563Y+4829417D01*
X-4505341Y+4870384D01*
X-4540141Y+4911229D01*
X-4581108Y+4942845D01*
X-4622075Y+4963392D01*
X-4663042Y+4975629D01*
X-4704009Y+4980762D01*
X-4715000Y+4981000D01*
X-4969000Y+4727000D02*
X-4968173Y+4747483D01*
X-4961455Y+4788450D01*
X-4947437Y+4829417D01*
X-4924659Y+4870384D01*
X-4889859Y+4911229D01*
X-4848892Y+4942845D01*
X-4807925Y+4963392D01*
X-4766958Y+4975629D01*
X-4725991Y+4980762D01*
X-4715000Y+4981000D01*
X-4969000Y+4727000D02*
X-4968173Y+4706517D01*
X-4961455Y+4665550D01*
X-4947437Y+4624583D01*
X-4924659Y+4583616D01*
X-4889859Y+4542771D01*
X-4848892Y+4511155D01*
X-4807925Y+4490608D01*
X-4766958Y+4478371D01*
X-4725991Y+4473238D01*
X-4715000Y+4473000D01*
X-4461000Y+4727000D02*
X-4461827Y+4706517D01*
X-4468545Y+4665550D01*
X-4482563Y+4624583D01*
X-4505341Y+4583616D01*
X-4540141Y+4542771D01*
X-4581108Y+4511155D01*
X-4622075Y+4490608D01*
X-4663042Y+4478371D01*
X-4704009Y+4473238D01*
X-4715000Y+4473000D01*
X-5032500Y+4981000D02*
X-4905500Y+4981000D01*
X-4969000Y+5044500D02*
X-4969000Y+4917500D01*
X-4853430Y+5074980D02*
X-4853430Y+5151180D01*
X-4800090Y+5151180D01*
X-4773420Y+5125780D01*
X-4773420Y+5100380D01*
X-4800090Y+5074980D01*
X-4853430Y+5074980D01*
X-4720080Y+5125780D02*
X-4693410Y+5151180D01*
X-4693410Y+5074980D01*
X-2711000Y+4727000D02*
X-2711827Y+4747483D01*
X-2718545Y+4788450D01*
X-2732563Y+4829417D01*
X-2755341Y+4870384D01*
X-2790141Y+4911229D01*
X-2831108Y+4942845D01*
X-2872075Y+4963392D01*
X-2913042Y+4975629D01*
X-2954009Y+4980762D01*
X-2965000Y+4981000D01*
X-3219000Y+4727000D02*
X-3218173Y+4747483D01*
X-3211455Y+4788450D01*
X-3197437Y+4829417D01*
X-3174659Y+4870384D01*
X-3139859Y+4911229D01*
X-3098892Y+4942845D01*
X-3057925Y+4963392D01*
X-3016958Y+4975629D01*
X-2975991Y+4980762D01*
X-2965000Y+4981000D01*
X-3219000Y+4727000D02*
X-3218173Y+4706517D01*
X-3211455Y+4665550D01*
X-3197437Y+4624583D01*
X-3174659Y+4583616D01*
X-3139859Y+4542771D01*
X-3098892Y+4511155D01*
X-3057925Y+4490608D01*
X-3016958Y+4478371D01*
X-2975991Y+4473238D01*
X-2965000Y+4473000D01*
X-2711000Y+4727000D02*
X-2711827Y+4706517D01*
X-2718545Y+4665550D01*
X-2732563Y+4624583D01*
X-2755341Y+4583616D01*
X-2790141Y+4542771D01*
X-2831108Y+4511155D01*
X-2872075Y+4490608D01*
X-2913042Y+4478371D01*
X-2954009Y+4473238D01*
X-2965000Y+4473000D01*
X-3282500Y+4981000D02*
X-3155500Y+4981000D01*
X-3219000Y+5044500D02*
X-3219000Y+4917500D01*
X-3103430Y+5074980D02*
X-3103430Y+5151180D01*
X-3050090Y+5151180D01*
X-3023420Y+5125780D01*
X-3023420Y+5100380D01*
X-3050090Y+5074980D01*
X-3103430Y+5074980D01*
X-2983415Y+5138480D02*
X-2970080Y+5151180D01*
X-2930075Y+5151180D01*
X-2916740Y+5138480D01*
X-2916740Y+5125780D01*
X-2930075Y+5113080D01*
X-2970080Y+5113080D01*
X-2983415Y+5100380D01*
X-2983415Y+5074980D01*
X-2916740Y+5074980D01*
X-1123000Y+5250000D02*
X-1123827Y+5270483D01*
X-1130545Y+5311450D01*
X-1144563Y+5352417D01*
X-1167341Y+5393384D01*
X-1202141Y+5434229D01*
X-1243108Y+5465845D01*
X-1284075Y+5486392D01*
X-1325042Y+5498629D01*
X-1366009Y+5503762D01*
X-1377000Y+5504000D01*
X-1631000Y+5250000D02*
X-1630173Y+5270483D01*
X-1623455Y+5311450D01*
X-1609437Y+5352417D01*
X-1586659Y+5393384D01*
X-1551859Y+5434229D01*
X-1510892Y+5465845D01*
X-1469925Y+5486392D01*
X-1428958Y+5498629D01*
X-1387991Y+5503762D01*
X-1377000Y+5504000D01*
X-1631000Y+5250000D02*
X-1630173Y+5229517D01*
X-1623455Y+5188550D01*
X-1609437Y+5147583D01*
X-1586659Y+5106616D01*
X-1551859Y+5065771D01*
X-1510892Y+5034155D01*
X-1469925Y+5013608D01*
X-1428958Y+5001371D01*
X-1387991Y+4996238D01*
X-1377000Y+4996000D01*
X-1123000Y+5250000D02*
X-1123827Y+5229517D01*
X-1130545Y+5188550D01*
X-1144563Y+5147583D01*
X-1167341Y+5106616D01*
X-1202141Y+5065771D01*
X-1243108Y+5034155D01*
X-1284075Y+5013608D01*
X-1325042Y+5001371D01*
X-1366009Y+4996238D01*
X-1377000Y+4996000D01*
X-1694500Y+5504000D02*
X-1567500Y+5504000D01*
X-1631000Y+5567500D02*
X-1631000Y+5440500D01*
X-1515430Y+5597980D02*
X-1515430Y+5674180D01*
X-1462090Y+5674180D01*
X-1435420Y+5648780D01*
X-1435420Y+5623380D01*
X-1462090Y+5597980D01*
X-1515430Y+5597980D01*
X-1395415Y+5661480D02*
X-1382080Y+5674180D01*
X-1342075Y+5674180D01*
X-1328740Y+5661480D01*
X-1328740Y+5648780D01*
X-1342075Y+5636080D01*
X-1328740Y+5623380D01*
X-1328740Y+5610680D01*
X-1342075Y+5597980D01*
X-1382080Y+5597980D01*
X-1395415Y+5610680D01*
X-1368745Y+5636080D02*
X-1342075Y+5636080D01*
X-1123000Y+4500000D02*
X-1123827Y+4520483D01*
X-1130545Y+4561450D01*
X-1144563Y+4602417D01*
X-1167341Y+4643384D01*
X-1202141Y+4684229D01*
X-1243108Y+4715845D01*
X-1284075Y+4736392D01*
X-1325042Y+4748629D01*
X-1366009Y+4753762D01*
X-1377000Y+4754000D01*
X-1631000Y+4500000D02*
X-1630173Y+4520483D01*
X-1623455Y+4561450D01*
X-1609437Y+4602417D01*
X-1586659Y+4643384D01*
X-1551859Y+4684229D01*
X-1510892Y+4715845D01*
X-1469925Y+4736392D01*
X-1428958Y+4748629D01*
X-1387991Y+4753762D01*
X-1377000Y+4754000D01*
X-1631000Y+4500000D02*
X-1630173Y+4479517D01*
X-1623455Y+4438550D01*
X-1609437Y+4397583D01*
X-1586659Y+4356616D01*
X-1551859Y+4315771D01*
X-1510892Y+4284155D01*
X-1469925Y+4263608D01*
X-1428958Y+4251371D01*
X-1387991Y+4246238D01*
X-1377000Y+4246000D01*
X-1123000Y+4500000D02*
X-1123827Y+4479517D01*
X-1130545Y+4438550D01*
X-1144563Y+4397583D01*
X-1167341Y+4356616D01*
X-1202141Y+4315771D01*
X-1243108Y+4284155D01*
X-1284075Y+4263608D01*
X-1325042Y+4251371D01*
X-1366009Y+4246238D01*
X-1377000Y+4246000D01*
X-1694500Y+4754000D02*
X-1567500Y+4754000D01*
X-1631000Y+4817500D02*
X-1631000Y+4690500D01*
X-1515430Y+4847980D02*
X-1515430Y+4924180D01*
X-1462090Y+4924180D01*
X-1435420Y+4898780D01*
X-1435420Y+4873380D01*
X-1462090Y+4847980D01*
X-1515430Y+4847980D01*
X-1328740Y+4873380D02*
X-1408750Y+4873380D01*
X-1355410Y+4924180D01*
X-1355410Y+4847980D01*
X+789000Y+4727000D02*
X+788173Y+4747483D01*
X+781455Y+4788450D01*
X+767437Y+4829417D01*
X+744659Y+4870384D01*
X+709859Y+4911229D01*
X+668892Y+4942845D01*
X+627925Y+4963392D01*
X+586958Y+4975629D01*
X+545991Y+4980762D01*
X+535000Y+4981000D01*
X+281000Y+4727000D02*
X+281827Y+4747483D01*
X+288545Y+4788450D01*
X+302563Y+4829417D01*
X+325341Y+4870384D01*
X+360141Y+4911229D01*
X+401108Y+4942845D01*
X+442075Y+4963392D01*
X+483042Y+4975629D01*
X+524009Y+4980762D01*
X+535000Y+4981000D01*
X+281000Y+4727000D02*
X+281827Y+4706517D01*
X+288545Y+4665550D01*
X+302563Y+4624583D01*
X+325341Y+4583616D01*
X+360141Y+4542771D01*
X+401108Y+4511155D01*
X+442075Y+4490608D01*
X+483042Y+4478371D01*
X+524009Y+4473238D01*
X+535000Y+4473000D01*
X+789000Y+4727000D02*
X+788173Y+4706517D01*
X+781455Y+4665550D01*
X+767437Y+4624583D01*
X+744659Y+4583616D01*
X+709859Y+4542771D01*
X+668892Y+4511155D01*
X+627925Y+4490608D01*
X+586958Y+4478371D01*
X+545991Y+4473238D01*
X+535000Y+4473000D01*
X+217500Y+4981000D02*
X+344500Y+4981000D01*
X+281000Y+5044500D02*
X+281000Y+4917500D01*
X+396570Y+5074980D02*
X+396570Y+5151180D01*
X+449910Y+5151180D01*
X+476580Y+5125780D01*
X+476580Y+5100380D01*
X+449910Y+5074980D01*
X+396570Y+5074980D01*
X+583260Y+5151180D02*
X+516585Y+5151180D01*
X+516585Y+5125780D01*
X+569925Y+5125780D01*
X+583260Y+5113080D01*
X+583260Y+5087680D01*
X+569925Y+5074980D01*
X+529920Y+5074980D01*
X+516585Y+5087680D01*
X+2789000Y+4727000D02*
X+2788173Y+4747483D01*
X+2781455Y+4788450D01*
X+2767437Y+4829417D01*
X+2744659Y+4870384D01*
X+2709859Y+4911229D01*
X+2668892Y+4942845D01*
X+2627925Y+4963392D01*
X+2586958Y+4975629D01*
X+2545991Y+4980762D01*
X+2535000Y+4981000D01*
X+2281000Y+4727000D02*
X+2281827Y+4747483D01*
X+2288545Y+4788450D01*
X+2302563Y+4829417D01*
X+2325341Y+4870384D01*
X+2360141Y+4911229D01*
X+2401108Y+4942845D01*
X+2442075Y+4963392D01*
X+2483042Y+4975629D01*
X+2524009Y+4980762D01*
X+2535000Y+4981000D01*
X+2281000Y+4727000D02*
X+2281827Y+4706517D01*
X+2288545Y+4665550D01*
X+2302563Y+4624583D01*
X+2325341Y+4583616D01*
X+2360141Y+4542771D01*
X+2401108Y+4511155D01*
X+2442075Y+4490608D01*
X+2483042Y+4478371D01*
X+2524009Y+4473238D01*
X+2535000Y+4473000D01*
X+2789000Y+4727000D02*
X+2788173Y+4706517D01*
X+2781455Y+4665550D01*
X+2767437Y+4624583D01*
X+2744659Y+4583616D01*
X+2709859Y+4542771D01*
X+2668892Y+4511155D01*
X+2627925Y+4490608D01*
X+2586958Y+4478371D01*
X+2545991Y+4473238D01*
X+2535000Y+4473000D01*
X+2217500Y+4981000D02*
X+2344500Y+4981000D01*
X+2281000Y+5044500D02*
X+2281000Y+4917500D01*
X+2396570Y+5074980D02*
X+2396570Y+5151180D01*
X+2449910Y+5151180D01*
X+2476580Y+5125780D01*
X+2476580Y+5100380D01*
X+2449910Y+5074980D01*
X+2396570Y+5074980D01*
X+2583260Y+5138480D02*
X+2569925Y+5151180D01*
X+2529920Y+5151180D01*
X+2516585Y+5138480D01*
X+2516585Y+5087680D01*
X+2529920Y+5074980D01*
X+2569925Y+5074980D01*
X+2583260Y+5087680D01*
X+2583260Y+5100380D01*
X+2569925Y+5113080D01*
X+2516585Y+5113080D01*
X+4227000Y+5227000D02*
X+4226173Y+5247483D01*
X+4219455Y+5288450D01*
X+4205437Y+5329417D01*
X+4182659Y+5370384D01*
X+4147859Y+5411229D01*
X+4106892Y+5442845D01*
X+4065925Y+5463392D01*
X+4024958Y+5475629D01*
X+3983991Y+5480762D01*
X+3973000Y+5481000D01*
X+3719000Y+5227000D02*
X+3719827Y+5247483D01*
X+3726545Y+5288450D01*
X+3740563Y+5329417D01*
X+3763341Y+5370384D01*
X+3798141Y+5411229D01*
X+3839108Y+5442845D01*
X+3880075Y+5463392D01*
X+3921042Y+5475629D01*
X+3962009Y+5480762D01*
X+3973000Y+5481000D01*
X+3719000Y+5227000D02*
X+3719827Y+5206517D01*
X+3726545Y+5165550D01*
X+3740563Y+5124583D01*
X+3763341Y+5083616D01*
X+3798141Y+5042771D01*
X+3839108Y+5011155D01*
X+3880075Y+4990608D01*
X+3921042Y+4978371D01*
X+3962009Y+4973238D01*
X+3973000Y+4973000D01*
X+4227000Y+5227000D02*
X+4226173Y+5206517D01*
X+4219455Y+5165550D01*
X+4205437Y+5124583D01*
X+4182659Y+5083616D01*
X+4147859Y+5042771D01*
X+4106892Y+5011155D01*
X+4065925Y+4990608D01*
X+4024958Y+4978371D01*
X+3983991Y+4973238D01*
X+3973000Y+4973000D01*
X+3655500Y+5481000D02*
X+3782500Y+5481000D01*
X+3719000Y+5544500D02*
X+3719000Y+5417500D01*
X+3834570Y+5574980D02*
X+3834570Y+5651180D01*
X+3887910Y+5651180D01*
X+3914580Y+5625780D01*
X+3914580Y+5600380D01*
X+3887910Y+5574980D01*
X+3834570Y+5574980D01*
X+3954585Y+5651180D02*
X+4021260Y+5651180D01*
X+4021260Y+5638480D01*
X+3954585Y+5574980D01*
X+4227000Y+4500000D02*
X+4226173Y+4520483D01*
X+4219455Y+4561450D01*
X+4205437Y+4602417D01*
X+4182659Y+4643384D01*
X+4147859Y+4684229D01*
X+4106892Y+4715845D01*
X+4065925Y+4736392D01*
X+4024958Y+4748629D01*
X+3983991Y+4753762D01*
X+3973000Y+4754000D01*
X+3719000Y+4500000D02*
X+3719827Y+4520483D01*
X+3726545Y+4561450D01*
X+3740563Y+4602417D01*
X+3763341Y+4643384D01*
X+3798141Y+4684229D01*
X+3839108Y+4715845D01*
X+3880075Y+4736392D01*
X+3921042Y+4748629D01*
X+3962009Y+4753762D01*
X+3973000Y+4754000D01*
X+3719000Y+4500000D02*
X+3719827Y+4479517D01*
X+3726545Y+4438550D01*
X+3740563Y+4397583D01*
X+3763341Y+4356616D01*
X+3798141Y+4315771D01*
X+3839108Y+4284155D01*
X+3880075Y+4263608D01*
X+3921042Y+4251371D01*
X+3962009Y+4246238D01*
X+3973000Y+4246000D01*
X+4227000Y+4500000D02*
X+4226173Y+4479517D01*
X+4219455Y+4438550D01*
X+4205437Y+4397583D01*
X+4182659Y+4356616D01*
X+4147859Y+4315771D01*
X+4106892Y+4284155D01*
X+4065925Y+4263608D01*
X+4024958Y+4251371D01*
X+3983991Y+4246238D01*
X+3973000Y+4246000D01*
X+3655500Y+4754000D02*
X+3782500Y+4754000D01*
X+3719000Y+4817500D02*
X+3719000Y+4690500D01*
X+3834570Y+4847980D02*
X+3834570Y+4924180D01*
X+3887910Y+4924180D01*
X+3914580Y+4898780D01*
X+3914580Y+4873380D01*
X+3887910Y+4847980D01*
X+3834570Y+4847980D01*
X+3967920Y+4886080D02*
X+3954585Y+4898780D01*
X+3954585Y+4911480D01*
X+3967920Y+4924180D01*
X+4007925Y+4924180D01*
X+4021260Y+4911480D01*
X+4021260Y+4898780D01*
X+4007925Y+4886080D01*
X+3967920Y+4886080D01*
X+3954585Y+4873380D01*
X+3954585Y+4860680D01*
X+3967920Y+4847980D01*
X+4007925Y+4847980D01*
X+4021260Y+4860680D01*
X+4021260Y+4873380D01*
X+4007925Y+4886080D01*
X+5477000Y+4500000D02*
X+5476173Y+4520483D01*
X+5469455Y+4561450D01*
X+5455437Y+4602417D01*
X+5432659Y+4643384D01*
X+5397859Y+4684229D01*
X+5356892Y+4715845D01*
X+5315925Y+4736392D01*
X+5274958Y+4748629D01*
X+5233991Y+4753762D01*
X+5223000Y+4754000D01*
X+4969000Y+4500000D02*
X+4969827Y+4520483D01*
X+4976545Y+4561450D01*
X+4990563Y+4602417D01*
X+5013341Y+4643384D01*
X+5048141Y+4684229D01*
X+5089108Y+4715845D01*
X+5130075Y+4736392D01*
X+5171042Y+4748629D01*
X+5212009Y+4753762D01*
X+5223000Y+4754000D01*
X+4969000Y+4500000D02*
X+4969827Y+4479517D01*
X+4976545Y+4438550D01*
X+4990563Y+4397583D01*
X+5013341Y+4356616D01*
X+5048141Y+4315771D01*
X+5089108Y+4284155D01*
X+5130075Y+4263608D01*
X+5171042Y+4251371D01*
X+5212009Y+4246238D01*
X+5223000Y+4246000D01*
X+5477000Y+4500000D02*
X+5476173Y+4479517D01*
X+5469455Y+4438550D01*
X+5455437Y+4397583D01*
X+5432659Y+4356616D01*
X+5397859Y+4315771D01*
X+5356892Y+4284155D01*
X+5315925Y+4263608D01*
X+5274958Y+4251371D01*
X+5233991Y+4246238D01*
X+5223000Y+4246000D01*
X+4905500Y+4754000D02*
X+5032500Y+4754000D01*
X+4969000Y+4817500D02*
X+4969000Y+4690500D01*
X+5084570Y+4847980D02*
X+5084570Y+4924180D01*
X+5137910Y+4924180D01*
X+5164580Y+4898780D01*
X+5164580Y+4873380D01*
X+5137910Y+4847980D01*
X+5084570Y+4847980D01*
X+5271260Y+4898780D02*
X+5257925Y+4886080D01*
X+5217920Y+4886080D01*
X+5204585Y+4898780D01*
X+5204585Y+4911480D01*
X+5217920Y+4924180D01*
X+5257925Y+4924180D01*
X+5271260Y+4911480D01*
X+5271260Y+4860680D01*
X+5257925Y+4847980D01*
X+5217920Y+4847980D01*
X+5477000Y+5200000D02*
X+5476173Y+5220483D01*
X+5469455Y+5261450D01*
X+5455437Y+5302417D01*
X+5432659Y+5343384D01*
X+5397859Y+5384229D01*
X+5356892Y+5415845D01*
X+5315925Y+5436392D01*
X+5274958Y+5448629D01*
X+5233991Y+5453762D01*
X+5223000Y+5454000D01*
X+4969000Y+5200000D02*
X+4969827Y+5220483D01*
X+4976545Y+5261450D01*
X+4990563Y+5302417D01*
X+5013341Y+5343384D01*
X+5048141Y+5384229D01*
X+5089108Y+5415845D01*
X+5130075Y+5436392D01*
X+5171042Y+5448629D01*
X+5212009Y+5453762D01*
X+5223000Y+5454000D01*
X+4969000Y+5200000D02*
X+4969827Y+5179517D01*
X+4976545Y+5138550D01*
X+4990563Y+5097583D01*
X+5013341Y+5056616D01*
X+5048141Y+5015771D01*
X+5089108Y+4984155D01*
X+5130075Y+4963608D01*
X+5171042Y+4951371D01*
X+5212009Y+4946238D01*
X+5223000Y+4946000D01*
X+5477000Y+5200000D02*
X+5476173Y+5179517D01*
X+5469455Y+5138550D01*
X+5455437Y+5097583D01*
X+5432659Y+5056616D01*
X+5397859Y+5015771D01*
X+5356892Y+4984155D01*
X+5315925Y+4963608D01*
X+5274958Y+4951371D01*
X+5233991Y+4946238D01*
X+5223000Y+4946000D01*
X+4905500Y+5454000D02*
X+5032500Y+5454000D01*
X+4969000Y+5517500D02*
X+4969000Y+5390500D01*
X+5031230Y+5547980D02*
X+5031230Y+5624180D01*
X+5084570Y+5624180D01*
X+5111240Y+5598780D01*
X+5111240Y+5573380D01*
X+5084570Y+5547980D01*
X+5031230Y+5547980D01*
X+5164580Y+5598780D02*
X+5191250Y+5624180D01*
X+5191250Y+5547980D01*
X+5244590Y+5560680D02*
X+5244590Y+5611480D01*
X+5257925Y+5624180D01*
X+5311265Y+5624180D01*
X+5324600Y+5611480D01*
X+5324600Y+5560680D01*
X+5311265Y+5547980D01*
X+5257925Y+5547980D01*
X+5244590Y+5560680D01*
X+5244590Y+5547980D02*
X+5324600Y+5624180D01*
X+4135000Y-4500000D02*
X+4134173Y-4479517D01*
X+4127455Y-4438550D01*
X+4113437Y-4397583D01*
X+4090659Y-4356616D01*
X+4055859Y-4315771D01*
X+4014892Y-4284155D01*
X+3973925Y-4263608D01*
X+3932958Y-4251371D01*
X+3891991Y-4246238D01*
X+3881000Y-4246000D01*
X+3627000Y-4500000D02*
X+3627827Y-4479517D01*
X+3634545Y-4438550D01*
X+3648563Y-4397583D01*
X+3671341Y-4356616D01*
X+3706141Y-4315771D01*
X+3747108Y-4284155D01*
X+3788075Y-4263608D01*
X+3829042Y-4251371D01*
X+3870009Y-4246238D01*
X+3881000Y-4246000D01*
X+3627000Y-4500000D02*
X+3627827Y-4520483D01*
X+3634545Y-4561450D01*
X+3648563Y-4602417D01*
X+3671341Y-4643384D01*
X+3706141Y-4684229D01*
X+3747108Y-4715845D01*
X+3788075Y-4736392D01*
X+3829042Y-4748629D01*
X+3870009Y-4753762D01*
X+3881000Y-4754000D01*
X+4135000Y-4500000D02*
X+4134173Y-4520483D01*
X+4127455Y-4561450D01*
X+4113437Y-4602417D01*
X+4090659Y-4643384D01*
X+4055859Y-4684229D01*
X+4014892Y-4715845D01*
X+3973925Y-4736392D01*
X+3932958Y-4748629D01*
X+3891991Y-4753762D01*
X+3881000Y-4754000D01*
X+3563500Y-4246000D02*
X+3690500Y-4246000D01*
X+3627000Y-4182500D02*
X+3627000Y-4309500D01*
X+3689230Y-4152020D02*
X+3689230Y-4075820D01*
X+3742570Y-4075820D01*
X+3769240Y-4101220D01*
X+3769240Y-4126620D01*
X+3742570Y-4152020D01*
X+3689230Y-4152020D01*
X+3822580Y-4101220D02*
X+3849250Y-4075820D01*
X+3849250Y-4152020D01*
X+3929260Y-4101220D02*
X+3955930Y-4075820D01*
X+3955930Y-4152020D01*
X+2131000Y-5250000D02*
X+2130173Y-5229517D01*
X+2123455Y-5188550D01*
X+2109437Y-5147583D01*
X+2086659Y-5106616D01*
X+2051859Y-5065771D01*
X+2010892Y-5034155D01*
X+1969925Y-5013608D01*
X+1928958Y-5001371D01*
X+1887991Y-4996238D01*
X+1877000Y-4996000D01*
X+1623000Y-5250000D02*
X+1623827Y-5229517D01*
X+1630545Y-5188550D01*
X+1644563Y-5147583D01*
X+1667341Y-5106616D01*
X+1702141Y-5065771D01*
X+1743108Y-5034155D01*
X+1784075Y-5013608D01*
X+1825042Y-5001371D01*
X+1866009Y-4996238D01*
X+1877000Y-4996000D01*
X+1623000Y-5250000D02*
X+1623827Y-5270483D01*
X+1630545Y-5311450D01*
X+1644563Y-5352417D01*
X+1667341Y-5393384D01*
X+1702141Y-5434229D01*
X+1743108Y-5465845D01*
X+1784075Y-5486392D01*
X+1825042Y-5498629D01*
X+1866009Y-5503762D01*
X+1877000Y-5504000D01*
X+2131000Y-5250000D02*
X+2130173Y-5270483D01*
X+2123455Y-5311450D01*
X+2109437Y-5352417D01*
X+2086659Y-5393384D01*
X+2051859Y-5434229D01*
X+2010892Y-5465845D01*
X+1969925Y-5486392D01*
X+1928958Y-5498629D01*
X+1887991Y-5503762D01*
X+1877000Y-5504000D01*
X+1559500Y-4996000D02*
X+1686500Y-4996000D01*
X+1623000Y-4932500D02*
X+1623000Y-5059500D01*
X+1685230Y-4902020D02*
X+1685230Y-4825820D01*
X+1738570Y-4825820D01*
X+1765240Y-4851220D01*
X+1765240Y-4876620D01*
X+1738570Y-4902020D01*
X+1685230Y-4902020D01*
X+1818580Y-4851220D02*
X+1845250Y-4825820D01*
X+1845250Y-4902020D01*
X+1911925Y-4838520D02*
X+1925260Y-4825820D01*
X+1965265Y-4825820D01*
X+1978600Y-4838520D01*
X+1978600Y-4851220D01*
X+1965265Y-4863920D01*
X+1925260Y-4863920D01*
X+1911925Y-4876620D01*
X+1911925Y-4902020D01*
X+1978600Y-4902020D01*
X+2131000Y-4000000D02*
X+2130173Y-3979517D01*
X+2123455Y-3938550D01*
X+2109437Y-3897583D01*
X+2086659Y-3856616D01*
X+2051859Y-3815771D01*
X+2010892Y-3784155D01*
X+1969925Y-3763608D01*
X+1928958Y-3751371D01*
X+1887991Y-3746238D01*
X+1877000Y-3746000D01*
X+1623000Y-4000000D02*
X+1623827Y-3979517D01*
X+1630545Y-3938550D01*
X+1644563Y-3897583D01*
X+1667341Y-3856616D01*
X+1702141Y-3815771D01*
X+1743108Y-3784155D01*
X+1784075Y-3763608D01*
X+1825042Y-3751371D01*
X+1866009Y-3746238D01*
X+1877000Y-3746000D01*
X+1623000Y-4000000D02*
X+1623827Y-4020483D01*
X+1630545Y-4061450D01*
X+1644563Y-4102417D01*
X+1667341Y-4143384D01*
X+1702141Y-4184229D01*
X+1743108Y-4215845D01*
X+1784075Y-4236392D01*
X+1825042Y-4248629D01*
X+1866009Y-4253762D01*
X+1877000Y-4254000D01*
X+2131000Y-4000000D02*
X+2130173Y-4020483D01*
X+2123455Y-4061450D01*
X+2109437Y-4102417D01*
X+2086659Y-4143384D01*
X+2051859Y-4184229D01*
X+2010892Y-4215845D01*
X+1969925Y-4236392D01*
X+1928958Y-4248629D01*
X+1887991Y-4253762D01*
X+1877000Y-4254000D01*
X+1559500Y-3746000D02*
X+1686500Y-3746000D01*
X+1623000Y-3682500D02*
X+1623000Y-3809500D01*
X+1685230Y-3541520D02*
X+1685230Y-3465320D01*
X+1738570Y-3465320D01*
X+1765240Y-3490720D01*
X+1765240Y-3516120D01*
X+1738570Y-3541520D01*
X+1685230Y-3541520D01*
X+1818580Y-3490720D02*
X+1845250Y-3465320D01*
X+1845250Y-3541520D01*
X+1911925Y-3478020D02*
X+1925260Y-3465320D01*
X+1965265Y-3465320D01*
X+1978600Y-3478020D01*
X+1978600Y-3490720D01*
X+1965265Y-3503420D01*
X+1978600Y-3516120D01*
X+1978600Y-3528820D01*
X+1965265Y-3541520D01*
X+1925260Y-3541520D01*
X+1911925Y-3528820D01*
X+1938595Y-3503420D02*
X+1965265Y-3503420D01*
X+131000Y-4000000D02*
X+130173Y-3979517D01*
X+123455Y-3938550D01*
X+109437Y-3897583D01*
X+86659Y-3856616D01*
X+51859Y-3815771D01*
X+10892Y-3784155D01*
X-30075Y-3763608D01*
X-71042Y-3751371D01*
X-112009Y-3746238D01*
X-123000Y-3746000D01*
X-377000Y-4000000D02*
X-376173Y-3979517D01*
X-369455Y-3938550D01*
X-355437Y-3897583D01*
X-332659Y-3856616D01*
X-297859Y-3815771D01*
X-256892Y-3784155D01*
X-215925Y-3763608D01*
X-174958Y-3751371D01*
X-133991Y-3746238D01*
X-123000Y-3746000D01*
X-377000Y-4000000D02*
X-376173Y-4020483D01*
X-369455Y-4061450D01*
X-355437Y-4102417D01*
X-332659Y-4143384D01*
X-297859Y-4184229D01*
X-256892Y-4215845D01*
X-215925Y-4236392D01*
X-174958Y-4248629D01*
X-133991Y-4253762D01*
X-123000Y-4254000D01*
X+131000Y-4000000D02*
X+130173Y-4020483D01*
X+123455Y-4061450D01*
X+109437Y-4102417D01*
X+86659Y-4143384D01*
X+51859Y-4184229D01*
X+10892Y-4215845D01*
X-30075Y-4236392D01*
X-71042Y-4248629D01*
X-112009Y-4253762D01*
X-123000Y-4254000D01*
X-440500Y-3746000D02*
X-313500Y-3746000D01*
X-377000Y-3682500D02*
X-377000Y-3809500D01*
X-314770Y-3652020D02*
X-314770Y-3575820D01*
X-261430Y-3575820D01*
X-234760Y-3601220D01*
X-234760Y-3626620D01*
X-261430Y-3652020D01*
X-314770Y-3652020D01*
X-181420Y-3601220D02*
X-154750Y-3575820D01*
X-154750Y-3652020D01*
X-21400Y-3626620D02*
X-101410Y-3626620D01*
X-48070Y-3575820D01*
X-48070Y-3652020D01*
X+131000Y-5250000D02*
X+130173Y-5229517D01*
X+123455Y-5188550D01*
X+109437Y-5147583D01*
X+86659Y-5106616D01*
X+51859Y-5065771D01*
X+10892Y-5034155D01*
X-30075Y-5013608D01*
X-71042Y-5001371D01*
X-112009Y-4996238D01*
X-123000Y-4996000D01*
X-377000Y-5250000D02*
X-376173Y-5229517D01*
X-369455Y-5188550D01*
X-355437Y-5147583D01*
X-332659Y-5106616D01*
X-297859Y-5065771D01*
X-256892Y-5034155D01*
X-215925Y-5013608D01*
X-174958Y-5001371D01*
X-133991Y-4996238D01*
X-123000Y-4996000D01*
X-377000Y-5250000D02*
X-376173Y-5270483D01*
X-369455Y-5311450D01*
X-355437Y-5352417D01*
X-332659Y-5393384D01*
X-297859Y-5434229D01*
X-256892Y-5465845D01*
X-215925Y-5486392D01*
X-174958Y-5498629D01*
X-133991Y-5503762D01*
X-123000Y-5504000D01*
X+131000Y-5250000D02*
X+130173Y-5270483D01*
X+123455Y-5311450D01*
X+109437Y-5352417D01*
X+86659Y-5393384D01*
X+51859Y-5434229D01*
X+10892Y-5465845D01*
X-30075Y-5486392D01*
X-71042Y-5498629D01*
X-112009Y-5503762D01*
X-123000Y-5504000D01*
X-440500Y-4996000D02*
X-313500Y-4996000D01*
X-377000Y-4932500D02*
X-377000Y-5059500D01*
X-314770Y-4902020D02*
X-314770Y-4825820D01*
X-261430Y-4825820D01*
X-234760Y-4851220D01*
X-234760Y-4876620D01*
X-261430Y-4902020D01*
X-314770Y-4902020D01*
X-181420Y-4851220D02*
X-154750Y-4825820D01*
X-154750Y-4902020D01*
X-21400Y-4825820D02*
X-88075Y-4825820D01*
X-88075Y-4851220D01*
X-34735Y-4851220D01*
X-21400Y-4863920D01*
X-21400Y-4889320D01*
X-34735Y-4902020D01*
X-74740Y-4902020D01*
X-88075Y-4889320D01*
X-1873000Y-5250000D02*
X-1873827Y-5229517D01*
X-1880545Y-5188550D01*
X-1894563Y-5147583D01*
X-1917341Y-5106616D01*
X-1952141Y-5065771D01*
X-1993108Y-5034155D01*
X-2034075Y-5013608D01*
X-2075042Y-5001371D01*
X-2116009Y-4996238D01*
X-2127000Y-4996000D01*
X-2381000Y-5250000D02*
X-2380173Y-5229517D01*
X-2373455Y-5188550D01*
X-2359437Y-5147583D01*
X-2336659Y-5106616D01*
X-2301859Y-5065771D01*
X-2260892Y-5034155D01*
X-2219925Y-5013608D01*
X-2178958Y-5001371D01*
X-2137991Y-4996238D01*
X-2127000Y-4996000D01*
X-2381000Y-5250000D02*
X-2380173Y-5270483D01*
X-2373455Y-5311450D01*
X-2359437Y-5352417D01*
X-2336659Y-5393384D01*
X-2301859Y-5434229D01*
X-2260892Y-5465845D01*
X-2219925Y-5486392D01*
X-2178958Y-5498629D01*
X-2137991Y-5503762D01*
X-2127000Y-5504000D01*
X-1873000Y-5250000D02*
X-1873827Y-5270483D01*
X-1880545Y-5311450D01*
X-1894563Y-5352417D01*
X-1917341Y-5393384D01*
X-1952141Y-5434229D01*
X-1993108Y-5465845D01*
X-2034075Y-5486392D01*
X-2075042Y-5498629D01*
X-2116009Y-5503762D01*
X-2127000Y-5504000D01*
X-2444500Y-4996000D02*
X-2317500Y-4996000D01*
X-2381000Y-4932500D02*
X-2381000Y-5059500D01*
X-2318770Y-4902020D02*
X-2318770Y-4825820D01*
X-2265430Y-4825820D01*
X-2238760Y-4851220D01*
X-2238760Y-4876620D01*
X-2265430Y-4902020D01*
X-2318770Y-4902020D01*
X-2185420Y-4851220D02*
X-2158750Y-4825820D01*
X-2158750Y-4902020D01*
X-2025400Y-4838520D02*
X-2038735Y-4825820D01*
X-2078740Y-4825820D01*
X-2092075Y-4838520D01*
X-2092075Y-4889320D01*
X-2078740Y-4902020D01*
X-2038735Y-4902020D01*
X-2025400Y-4889320D01*
X-2025400Y-4876620D01*
X-2038735Y-4863920D01*
X-2092075Y-4863920D01*
X-1873000Y-4000000D02*
X-1873827Y-3979517D01*
X-1880545Y-3938550D01*
X-1894563Y-3897583D01*
X-1917341Y-3856616D01*
X-1952141Y-3815771D01*
X-1993108Y-3784155D01*
X-2034075Y-3763608D01*
X-2075042Y-3751371D01*
X-2116009Y-3746238D01*
X-2127000Y-3746000D01*
X-2381000Y-4000000D02*
X-2380173Y-3979517D01*
X-2373455Y-3938550D01*
X-2359437Y-3897583D01*
X-2336659Y-3856616D01*
X-2301859Y-3815771D01*
X-2260892Y-3784155D01*
X-2219925Y-3763608D01*
X-2178958Y-3751371D01*
X-2137991Y-3746238D01*
X-2127000Y-3746000D01*
X-2381000Y-4000000D02*
X-2380173Y-4020483D01*
X-2373455Y-4061450D01*
X-2359437Y-4102417D01*
X-2336659Y-4143384D01*
X-2301859Y-4184229D01*
X-2260892Y-4215845D01*
X-2219925Y-4236392D01*
X-2178958Y-4248629D01*
X-2137991Y-4253762D01*
X-2127000Y-4254000D01*
X-1873000Y-4000000D02*
X-1873827Y-4020483D01*
X-1880545Y-4061450D01*
X-1894563Y-4102417D01*
X-1917341Y-4143384D01*
X-1952141Y-4184229D01*
X-1993108Y-4215845D01*
X-2034075Y-4236392D01*
X-2075042Y-4248629D01*
X-2116009Y-4253762D01*
X-2127000Y-4254000D01*
X-2444500Y-3746000D02*
X-2317500Y-3746000D01*
X-2381000Y-3682500D02*
X-2381000Y-3809500D01*
X-2318770Y-3652020D02*
X-2318770Y-3575820D01*
X-2265430Y-3575820D01*
X-2238760Y-3601220D01*
X-2238760Y-3626620D01*
X-2265430Y-3652020D01*
X-2318770Y-3652020D01*
X-2185420Y-3601220D02*
X-2158750Y-3575820D01*
X-2158750Y-3652020D01*
X-2092075Y-3575820D02*
X-2025400Y-3575820D01*
X-2025400Y-3588520D01*
X-2092075Y-3652020D01*
X-3869000Y-4000000D02*
X-3869827Y-3979517D01*
X-3876545Y-3938550D01*
X-3890563Y-3897583D01*
X-3913341Y-3856616D01*
X-3948141Y-3815771D01*
X-3989108Y-3784155D01*
X-4030075Y-3763608D01*
X-4071042Y-3751371D01*
X-4112009Y-3746238D01*
X-4123000Y-3746000D01*
X-4377000Y-4000000D02*
X-4376173Y-3979517D01*
X-4369455Y-3938550D01*
X-4355437Y-3897583D01*
X-4332659Y-3856616D01*
X-4297859Y-3815771D01*
X-4256892Y-3784155D01*
X-4215925Y-3763608D01*
X-4174958Y-3751371D01*
X-4133991Y-3746238D01*
X-4123000Y-3746000D01*
X-4377000Y-4000000D02*
X-4376173Y-4020483D01*
X-4369455Y-4061450D01*
X-4355437Y-4102417D01*
X-4332659Y-4143384D01*
X-4297859Y-4184229D01*
X-4256892Y-4215845D01*
X-4215925Y-4236392D01*
X-4174958Y-4248629D01*
X-4133991Y-4253762D01*
X-4123000Y-4254000D01*
X-3869000Y-4000000D02*
X-3869827Y-4020483D01*
X-3876545Y-4061450D01*
X-3890563Y-4102417D01*
X-3913341Y-4143384D01*
X-3948141Y-4184229D01*
X-3989108Y-4215845D01*
X-4030075Y-4236392D01*
X-4071042Y-4248629D01*
X-4112009Y-4253762D01*
X-4123000Y-4254000D01*
X-4440500Y-3746000D02*
X-4313500Y-3746000D01*
X-4377000Y-3682500D02*
X-4377000Y-3809500D01*
X-4314770Y-3652020D02*
X-4314770Y-3575820D01*
X-4261430Y-3575820D01*
X-4234760Y-3601220D01*
X-4234760Y-3626620D01*
X-4261430Y-3652020D01*
X-4314770Y-3652020D01*
X-4181420Y-3601220D02*
X-4154750Y-3575820D01*
X-4154750Y-3652020D01*
X-4074740Y-3613920D02*
X-4088075Y-3601220D01*
X-4088075Y-3588520D01*
X-4074740Y-3575820D01*
X-4034735Y-3575820D01*
X-4021400Y-3588520D01*
X-4021400Y-3601220D01*
X-4034735Y-3613920D01*
X-4074740Y-3613920D01*
X-4088075Y-3626620D01*
X-4088075Y-3639320D01*
X-4074740Y-3652020D01*
X-4034735Y-3652020D01*
X-4021400Y-3639320D01*
X-4021400Y-3626620D01*
X-4034735Y-3613920D01*
X-3869000Y-5250000D02*
X-3869827Y-5229517D01*
X-3876545Y-5188550D01*
X-3890563Y-5147583D01*
X-3913341Y-5106616D01*
X-3948141Y-5065771D01*
X-3989108Y-5034155D01*
X-4030075Y-5013608D01*
X-4071042Y-5001371D01*
X-4112009Y-4996238D01*
X-4123000Y-4996000D01*
X-4377000Y-5250000D02*
X-4376173Y-5229517D01*
X-4369455Y-5188550D01*
X-4355437Y-5147583D01*
X-4332659Y-5106616D01*
X-4297859Y-5065771D01*
X-4256892Y-5034155D01*
X-4215925Y-5013608D01*
X-4174958Y-5001371D01*
X-4133991Y-4996238D01*
X-4123000Y-4996000D01*
X-4377000Y-5250000D02*
X-4376173Y-5270483D01*
X-4369455Y-5311450D01*
X-4355437Y-5352417D01*
X-4332659Y-5393384D01*
X-4297859Y-5434229D01*
X-4256892Y-5465845D01*
X-4215925Y-5486392D01*
X-4174958Y-5498629D01*
X-4133991Y-5503762D01*
X-4123000Y-5504000D01*
X-3869000Y-5250000D02*
X-3869827Y-5270483D01*
X-3876545Y-5311450D01*
X-3890563Y-5352417D01*
X-3913341Y-5393384D01*
X-3948141Y-5434229D01*
X-3989108Y-5465845D01*
X-4030075Y-5486392D01*
X-4071042Y-5498629D01*
X-4112009Y-5503762D01*
X-4123000Y-5504000D01*
X-4440500Y-4996000D02*
X-4313500Y-4996000D01*
X-4377000Y-4932500D02*
X-4377000Y-5059500D01*
X-4314770Y-4902020D02*
X-4314770Y-4825820D01*
X-4261430Y-4825820D01*
X-4234760Y-4851220D01*
X-4234760Y-4876620D01*
X-4261430Y-4902020D01*
X-4314770Y-4902020D01*
X-4181420Y-4851220D02*
X-4154750Y-4825820D01*
X-4154750Y-4902020D01*
X-4021400Y-4851220D02*
X-4034735Y-4863920D01*
X-4074740Y-4863920D01*
X-4088075Y-4851220D01*
X-4088075Y-4838520D01*
X-4074740Y-4825820D01*
X-4034735Y-4825820D01*
X-4021400Y-4838520D01*
X-4021400Y-4889320D01*
X-4034735Y-4902020D01*
X-4074740Y-4902020D01*
D71*
X-5749900Y+4536500D02*
X-5750031Y+4539658D01*
X-5751097Y+4545976D01*
X-5753328Y+4552294D01*
X-5756973Y+4558612D01*
X-5762548Y+4564851D01*
X-5768866Y+4569447D01*
X-5775184Y+4572380D01*
X-5781502Y+4574042D01*
X-5787820Y+4574600D01*
X-5788000Y+4574600D01*
X-5826100Y+4536500D02*
X-5825969Y+4539658D01*
X-5824903Y+4545976D01*
X-5822672Y+4552294D01*
X-5819027Y+4558612D01*
X-5813452Y+4564851D01*
X-5807134Y+4569447D01*
X-5800816Y+4572380D01*
X-5794498Y+4574042D01*
X-5788180Y+4574600D01*
X-5788000Y+4574600D01*
X-5826100Y+4536500D02*
X-5825969Y+4533342D01*
X-5824903Y+4527024D01*
X-5822672Y+4520706D01*
X-5819027Y+4514388D01*
X-5813452Y+4508149D01*
X-5807134Y+4503553D01*
X-5800816Y+4500620D01*
X-5794498Y+4498958D01*
X-5788180Y+4498400D01*
X-5788000Y+4498400D01*
X-5749900Y+4536500D02*
X-5750031Y+4533342D01*
X-5751097Y+4527024D01*
X-5753328Y+4520706D01*
X-5756973Y+4514388D01*
X-5762548Y+4508149D01*
X-5768866Y+4503553D01*
X-5775184Y+4500620D01*
X-5781502Y+4498958D01*
X-5787820Y+4498400D01*
X-5788000Y+4498400D01*
D20*
X-5936920Y+4626340D02*
X-5810407Y+4626340D01*
X-5439080Y+4626340D02*
X-5439080Y+4827000D01*
X-5562809Y+4827000D01*
X-5936920Y+4827000D02*
X-5936920Y+4626340D01*
X-5565593Y+4626340D02*
X-5439080Y+4626340D01*
X-5613191Y+4827000D02*
X-5762809Y+4827000D01*
X-5813191Y+4827000D02*
X-5936920Y+4827000D01*
X-5765593Y+4626340D02*
X-5610407Y+4626340D01*
D70*
X-5794680Y+4885420D02*
X-5794680Y+4872720D01*
X-5781345Y+4860020D01*
X-5728005Y+4860020D01*
X-5714670Y+4872720D01*
X-5714670Y+4936220D01*
X-5661330Y+4910820D02*
X-5634660Y+4936220D01*
X-5634660Y+4860020D01*
D71*
X-3549900Y+4917500D02*
X-3550031Y+4920658D01*
X-3551097Y+4926976D01*
X-3553328Y+4933294D01*
X-3556973Y+4939612D01*
X-3562548Y+4945851D01*
X-3568866Y+4950447D01*
X-3575184Y+4953380D01*
X-3581502Y+4955042D01*
X-3587820Y+4955600D01*
X-3588000Y+4955600D01*
X-3626100Y+4917500D02*
X-3625969Y+4920658D01*
X-3624903Y+4926976D01*
X-3622672Y+4933294D01*
X-3619027Y+4939612D01*
X-3613452Y+4945851D01*
X-3607134Y+4950447D01*
X-3600816Y+4953380D01*
X-3594498Y+4955042D01*
X-3588180Y+4955600D01*
X-3588000Y+4955600D01*
X-3626100Y+4917500D02*
X-3625969Y+4914342D01*
X-3624903Y+4908024D01*
X-3622672Y+4901706D01*
X-3619027Y+4895388D01*
X-3613452Y+4889149D01*
X-3607134Y+4884553D01*
X-3600816Y+4881620D01*
X-3594498Y+4879958D01*
X-3588180Y+4879400D01*
X-3588000Y+4879400D01*
X-3549900Y+4917500D02*
X-3550031Y+4914342D01*
X-3551097Y+4908024D01*
X-3553328Y+4901706D01*
X-3556973Y+4895388D01*
X-3562548Y+4889149D01*
X-3568866Y+4884553D01*
X-3575184Y+4881620D01*
X-3581502Y+4879958D01*
X-3587820Y+4879400D01*
X-3588000Y+4879400D01*
D20*
X-3439080Y+4827660D02*
X-3565593Y+4827660D01*
X-3936920Y+4827660D02*
X-3936920Y+4627000D01*
X-3813191Y+4627000D01*
X-3439080Y+4627000D02*
X-3439080Y+4827660D01*
X-3810407Y+4827660D02*
X-3936920Y+4827660D01*
X-3762809Y+4627000D02*
X-3613191Y+4627000D01*
X-3562809Y+4627000D02*
X-3439080Y+4627000D01*
X-3610407Y+4827660D02*
X-3765593Y+4827660D01*
D70*
X-3794680Y+4543180D02*
X-3794680Y+4530480D01*
X-3781345Y+4517780D01*
X-3728005Y+4517780D01*
X-3714670Y+4530480D01*
X-3714670Y+4593980D01*
X-3674665Y+4581280D02*
X-3661330Y+4593980D01*
X-3621325Y+4593980D01*
X-3607990Y+4581280D01*
X-3607990Y+4568580D01*
X-3621325Y+4555880D01*
X-3661330Y+4555880D01*
X-3674665Y+4543180D01*
X-3674665Y+4517780D01*
X-3607990Y+4517780D01*
D71*
X-1849900Y+4917500D02*
X-1850031Y+4920658D01*
X-1851097Y+4926976D01*
X-1853328Y+4933294D01*
X-1856973Y+4939612D01*
X-1862548Y+4945851D01*
X-1868866Y+4950447D01*
X-1875184Y+4953380D01*
X-1881502Y+4955042D01*
X-1887820Y+4955600D01*
X-1888000Y+4955600D01*
X-1926100Y+4917500D02*
X-1925969Y+4920658D01*
X-1924903Y+4926976D01*
X-1922672Y+4933294D01*
X-1919027Y+4939612D01*
X-1913452Y+4945851D01*
X-1907134Y+4950447D01*
X-1900816Y+4953380D01*
X-1894498Y+4955042D01*
X-1888180Y+4955600D01*
X-1888000Y+4955600D01*
X-1926100Y+4917500D02*
X-1925969Y+4914342D01*
X-1924903Y+4908024D01*
X-1922672Y+4901706D01*
X-1919027Y+4895388D01*
X-1913452Y+4889149D01*
X-1907134Y+4884553D01*
X-1900816Y+4881620D01*
X-1894498Y+4879958D01*
X-1888180Y+4879400D01*
X-1888000Y+4879400D01*
X-1849900Y+4917500D02*
X-1850031Y+4914342D01*
X-1851097Y+4908024D01*
X-1853328Y+4901706D01*
X-1856973Y+4895388D01*
X-1862548Y+4889149D01*
X-1868866Y+4884553D01*
X-1875184Y+4881620D01*
X-1881502Y+4879958D01*
X-1887820Y+4879400D01*
X-1888000Y+4879400D01*
D20*
X-1739080Y+4827660D02*
X-1865593Y+4827660D01*
X-2236920Y+4827660D02*
X-2236920Y+4627000D01*
X-2113191Y+4627000D01*
X-1739080Y+4627000D02*
X-1739080Y+4827660D01*
X-2110407Y+4827660D02*
X-2236920Y+4827660D01*
X-2062809Y+4627000D02*
X-1913191Y+4627000D01*
X-1862809Y+4627000D02*
X-1739080Y+4627000D01*
X-1910407Y+4827660D02*
X-2065593Y+4827660D01*
D70*
X-2094680Y+4543180D02*
X-2094680Y+4530480D01*
X-2081345Y+4517780D01*
X-2028005Y+4517780D01*
X-2014670Y+4530480D01*
X-2014670Y+4593980D01*
X-1974665Y+4581280D02*
X-1961330Y+4593980D01*
X-1921325Y+4593980D01*
X-1907990Y+4581280D01*
X-1907990Y+4568580D01*
X-1921325Y+4555880D01*
X-1907990Y+4543180D01*
X-1907990Y+4530480D01*
X-1921325Y+4517780D01*
X-1961330Y+4517780D01*
X-1974665Y+4530480D01*
X-1947995Y+4555880D02*
X-1921325Y+4555880D01*
D71*
X-299900Y+4917500D02*
X-300031Y+4920658D01*
X-301097Y+4926976D01*
X-303328Y+4933294D01*
X-306973Y+4939612D01*
X-312548Y+4945851D01*
X-318866Y+4950447D01*
X-325184Y+4953380D01*
X-331502Y+4955042D01*
X-337820Y+4955600D01*
X-338000Y+4955600D01*
X-376100Y+4917500D02*
X-375969Y+4920658D01*
X-374903Y+4926976D01*
X-372672Y+4933294D01*
X-369027Y+4939612D01*
X-363452Y+4945851D01*
X-357134Y+4950447D01*
X-350816Y+4953380D01*
X-344498Y+4955042D01*
X-338180Y+4955600D01*
X-338000Y+4955600D01*
X-376100Y+4917500D02*
X-375969Y+4914342D01*
X-374903Y+4908024D01*
X-372672Y+4901706D01*
X-369027Y+4895388D01*
X-363452Y+4889149D01*
X-357134Y+4884553D01*
X-350816Y+4881620D01*
X-344498Y+4879958D01*
X-338180Y+4879400D01*
X-338000Y+4879400D01*
X-299900Y+4917500D02*
X-300031Y+4914342D01*
X-301097Y+4908024D01*
X-303328Y+4901706D01*
X-306973Y+4895388D01*
X-312548Y+4889149D01*
X-318866Y+4884553D01*
X-325184Y+4881620D01*
X-331502Y+4879958D01*
X-337820Y+4879400D01*
X-338000Y+4879400D01*
D20*
X-189080Y+4827660D02*
X-315593Y+4827660D01*
X-686920Y+4827660D02*
X-686920Y+4627000D01*
X-563191Y+4627000D01*
X-189080Y+4627000D02*
X-189080Y+4827660D01*
X-560407Y+4827660D02*
X-686920Y+4827660D01*
X-512809Y+4627000D02*
X-363191Y+4627000D01*
X-312809Y+4627000D02*
X-189080Y+4627000D01*
X-360407Y+4827660D02*
X-515593Y+4827660D01*
D70*
X-544680Y+4543180D02*
X-544680Y+4530480D01*
X-531345Y+4517780D01*
X-478005Y+4517780D01*
X-464670Y+4530480D01*
X-464670Y+4593980D01*
X-357990Y+4543180D02*
X-438000Y+4543180D01*
X-384660Y+4593980D01*
X-384660Y+4517780D01*
D71*
X+1500100Y+4536500D02*
X+1499969Y+4539658D01*
X+1498903Y+4545976D01*
X+1496672Y+4552294D01*
X+1493027Y+4558612D01*
X+1487452Y+4564851D01*
X+1481134Y+4569447D01*
X+1474816Y+4572380D01*
X+1468498Y+4574042D01*
X+1462180Y+4574600D01*
X+1462000Y+4574600D01*
X+1423900Y+4536500D02*
X+1424031Y+4539658D01*
X+1425097Y+4545976D01*
X+1427328Y+4552294D01*
X+1430973Y+4558612D01*
X+1436548Y+4564851D01*
X+1442866Y+4569447D01*
X+1449184Y+4572380D01*
X+1455502Y+4574042D01*
X+1461820Y+4574600D01*
X+1462000Y+4574600D01*
X+1423900Y+4536500D02*
X+1424031Y+4533342D01*
X+1425097Y+4527024D01*
X+1427328Y+4520706D01*
X+1430973Y+4514388D01*
X+1436548Y+4508149D01*
X+1442866Y+4503553D01*
X+1449184Y+4500620D01*
X+1455502Y+4498958D01*
X+1461820Y+4498400D01*
X+1462000Y+4498400D01*
X+1500100Y+4536500D02*
X+1499969Y+4533342D01*
X+1498903Y+4527024D01*
X+1496672Y+4520706D01*
X+1493027Y+4514388D01*
X+1487452Y+4508149D01*
X+1481134Y+4503553D01*
X+1474816Y+4500620D01*
X+1468498Y+4498958D01*
X+1462180Y+4498400D01*
X+1462000Y+4498400D01*
D20*
X+1313080Y+4626340D02*
X+1439593Y+4626340D01*
X+1810920Y+4626340D02*
X+1810920Y+4827000D01*
X+1687191Y+4827000D01*
X+1313080Y+4827000D02*
X+1313080Y+4626340D01*
X+1684407Y+4626340D02*
X+1810920Y+4626340D01*
X+1636809Y+4827000D02*
X+1487191Y+4827000D01*
X+1436809Y+4827000D02*
X+1313080Y+4827000D01*
X+1484407Y+4626340D02*
X+1639593Y+4626340D01*
D70*
X+1455320Y+4885420D02*
X+1455320Y+4872720D01*
X+1468655Y+4860020D01*
X+1521995Y+4860020D01*
X+1535330Y+4872720D01*
X+1535330Y+4936220D01*
X+1642010Y+4936220D02*
X+1575335Y+4936220D01*
X+1575335Y+4910820D01*
X+1628675Y+4910820D01*
X+1642010Y+4898120D01*
X+1642010Y+4872720D01*
X+1628675Y+4860020D01*
X+1588670Y+4860020D01*
X+1575335Y+4872720D01*
D71*
X+3250100Y+4536500D02*
X+3249969Y+4539658D01*
X+3248903Y+4545976D01*
X+3246672Y+4552294D01*
X+3243027Y+4558612D01*
X+3237452Y+4564851D01*
X+3231134Y+4569447D01*
X+3224816Y+4572380D01*
X+3218498Y+4574042D01*
X+3212180Y+4574600D01*
X+3212000Y+4574600D01*
X+3173900Y+4536500D02*
X+3174031Y+4539658D01*
X+3175097Y+4545976D01*
X+3177328Y+4552294D01*
X+3180973Y+4558612D01*
X+3186548Y+4564851D01*
X+3192866Y+4569447D01*
X+3199184Y+4572380D01*
X+3205502Y+4574042D01*
X+3211820Y+4574600D01*
X+3212000Y+4574600D01*
X+3173900Y+4536500D02*
X+3174031Y+4533342D01*
X+3175097Y+4527024D01*
X+3177328Y+4520706D01*
X+3180973Y+4514388D01*
X+3186548Y+4508149D01*
X+3192866Y+4503553D01*
X+3199184Y+4500620D01*
X+3205502Y+4498958D01*
X+3211820Y+4498400D01*
X+3212000Y+4498400D01*
X+3250100Y+4536500D02*
X+3249969Y+4533342D01*
X+3248903Y+4527024D01*
X+3246672Y+4520706D01*
X+3243027Y+4514388D01*
X+3237452Y+4508149D01*
X+3231134Y+4503553D01*
X+3224816Y+4500620D01*
X+3218498Y+4498958D01*
X+3212180Y+4498400D01*
X+3212000Y+4498400D01*
D20*
X+3063080Y+4626340D02*
X+3189593Y+4626340D01*
X+3560920Y+4626340D02*
X+3560920Y+4827000D01*
X+3437191Y+4827000D01*
X+3063080Y+4827000D02*
X+3063080Y+4626340D01*
X+3434407Y+4626340D02*
X+3560920Y+4626340D01*
X+3386809Y+4827000D02*
X+3237191Y+4827000D01*
X+3186809Y+4827000D02*
X+3063080Y+4827000D01*
X+3234407Y+4626340D02*
X+3389593Y+4626340D01*
D70*
X+3205320Y+4885420D02*
X+3205320Y+4872720D01*
X+3218655Y+4860020D01*
X+3271995Y+4860020D01*
X+3285330Y+4872720D01*
X+3285330Y+4936220D01*
X+3392010Y+4923520D02*
X+3378675Y+4936220D01*
X+3338670Y+4936220D01*
X+3325335Y+4923520D01*
X+3325335Y+4872720D01*
X+3338670Y+4860020D01*
X+3378675Y+4860020D01*
X+3392010Y+4872720D01*
X+3392010Y+4885420D01*
X+3378675Y+4898120D01*
X+3325335Y+4898120D01*
D71*
X+4538100Y+4559500D02*
X+4537969Y+4562658D01*
X+4536903Y+4568976D01*
X+4534672Y+4575294D01*
X+4531027Y+4581612D01*
X+4525452Y+4587851D01*
X+4519134Y+4592447D01*
X+4512816Y+4595380D01*
X+4506498Y+4597042D01*
X+4500180Y+4597600D01*
X+4500000Y+4597600D01*
X+4461900Y+4559500D02*
X+4462031Y+4562658D01*
X+4463097Y+4568976D01*
X+4465328Y+4575294D01*
X+4468973Y+4581612D01*
X+4474548Y+4587851D01*
X+4480866Y+4592447D01*
X+4487184Y+4595380D01*
X+4493502Y+4597042D01*
X+4499820Y+4597600D01*
X+4500000Y+4597600D01*
X+4461900Y+4559500D02*
X+4462031Y+4556342D01*
X+4463097Y+4550024D01*
X+4465328Y+4543706D01*
X+4468973Y+4537388D01*
X+4474548Y+4531149D01*
X+4480866Y+4526553D01*
X+4487184Y+4523620D01*
X+4493502Y+4521958D01*
X+4499820Y+4521400D01*
X+4500000Y+4521400D01*
X+4538100Y+4559500D02*
X+4537969Y+4556342D01*
X+4536903Y+4550024D01*
X+4534672Y+4543706D01*
X+4531027Y+4537388D01*
X+4525452Y+4531149D01*
X+4519134Y+4526553D01*
X+4512816Y+4523620D01*
X+4506498Y+4521958D01*
X+4500180Y+4521400D01*
X+4500000Y+4521400D01*
D20*
X+4351080Y+4649340D02*
X+4477593Y+4649340D01*
X+4848920Y+4649340D02*
X+4848920Y+4850000D01*
X+4725191Y+4850000D01*
X+4351080Y+4850000D02*
X+4351080Y+4649340D01*
X+4722407Y+4649340D02*
X+4848920Y+4649340D01*
X+4674809Y+4850000D02*
X+4525191Y+4850000D01*
X+4474809Y+4850000D02*
X+4351080Y+4850000D01*
X+4522407Y+4649340D02*
X+4677593Y+4649340D01*
D70*
X+4493320Y+4908420D02*
X+4493320Y+4895720D01*
X+4506655Y+4883020D01*
X+4559995Y+4883020D01*
X+4573330Y+4895720D01*
X+4573330Y+4959220D01*
X+4613335Y+4959220D02*
X+4680010Y+4959220D01*
X+4680010Y+4946520D01*
X+4613335Y+4883020D01*
D71*
X+2736100Y-4690500D02*
X+2735969Y-4687342D01*
X+2734903Y-4681024D01*
X+2732672Y-4674706D01*
X+2729027Y-4668388D01*
X+2723452Y-4662149D01*
X+2717134Y-4657553D01*
X+2710816Y-4654620D01*
X+2704498Y-4652958D01*
X+2698180Y-4652400D01*
X+2698000Y-4652400D01*
X+2659900Y-4690500D02*
X+2660031Y-4687342D01*
X+2661097Y-4681024D01*
X+2663328Y-4674706D01*
X+2666973Y-4668388D01*
X+2672548Y-4662149D01*
X+2678866Y-4657553D01*
X+2685184Y-4654620D01*
X+2691502Y-4652958D01*
X+2697820Y-4652400D01*
X+2698000Y-4652400D01*
X+2659900Y-4690500D02*
X+2660031Y-4693658D01*
X+2661097Y-4699976D01*
X+2663328Y-4706294D01*
X+2666973Y-4712612D01*
X+2672548Y-4718851D01*
X+2678866Y-4723447D01*
X+2685184Y-4726380D01*
X+2691502Y-4728042D01*
X+2697820Y-4728600D01*
X+2698000Y-4728600D01*
X+2736100Y-4690500D02*
X+2735969Y-4693658D01*
X+2734903Y-4699976D01*
X+2732672Y-4706294D01*
X+2729027Y-4712612D01*
X+2723452Y-4718851D01*
X+2717134Y-4723447D01*
X+2710816Y-4726380D01*
X+2704498Y-4728042D01*
X+2698180Y-4728600D01*
X+2698000Y-4728600D01*
D20*
X+2549080Y-4600660D02*
X+2675593Y-4600660D01*
X+3046920Y-4600660D02*
X+3046920Y-4400000D01*
X+2923191Y-4400000D01*
X+2549080Y-4400000D02*
X+2549080Y-4600660D01*
X+2920407Y-4600660D02*
X+3046920Y-4600660D01*
X+2872809Y-4400000D02*
X+2723191Y-4400000D01*
X+2672809Y-4400000D02*
X+2549080Y-4400000D01*
X+2720407Y-4600660D02*
X+2875593Y-4600660D01*
D70*
X+2691320Y-4341580D02*
X+2691320Y-4354280D01*
X+2704655Y-4366980D01*
X+2757995Y-4366980D01*
X+2771330Y-4354280D01*
X+2771330Y-4290780D01*
X+2824670Y-4328880D02*
X+2811335Y-4316180D01*
X+2811335Y-4303480D01*
X+2824670Y-4290780D01*
X+2864675Y-4290780D01*
X+2878010Y-4303480D01*
X+2878010Y-4316180D01*
X+2864675Y-4328880D01*
X+2824670Y-4328880D01*
X+2811335Y-4341580D01*
X+2811335Y-4354280D01*
X+2824670Y-4366980D01*
X+2864675Y-4366980D01*
X+2878010Y-4354280D01*
X+2878010Y-4341580D01*
X+2864675Y-4328880D01*
D71*
X+838100Y-4690500D02*
X+837969Y-4687342D01*
X+836903Y-4681024D01*
X+834672Y-4674706D01*
X+831027Y-4668388D01*
X+825452Y-4662149D01*
X+819134Y-4657553D01*
X+812816Y-4654620D01*
X+806498Y-4652958D01*
X+800180Y-4652400D01*
X+800000Y-4652400D01*
X+761900Y-4690500D02*
X+762031Y-4687342D01*
X+763097Y-4681024D01*
X+765328Y-4674706D01*
X+768973Y-4668388D01*
X+774548Y-4662149D01*
X+780866Y-4657553D01*
X+787184Y-4654620D01*
X+793502Y-4652958D01*
X+799820Y-4652400D01*
X+800000Y-4652400D01*
X+761900Y-4690500D02*
X+762031Y-4693658D01*
X+763097Y-4699976D01*
X+765328Y-4706294D01*
X+768973Y-4712612D01*
X+774548Y-4718851D01*
X+780866Y-4723447D01*
X+787184Y-4726380D01*
X+793502Y-4728042D01*
X+799820Y-4728600D01*
X+800000Y-4728600D01*
X+838100Y-4690500D02*
X+837969Y-4693658D01*
X+836903Y-4699976D01*
X+834672Y-4706294D01*
X+831027Y-4712612D01*
X+825452Y-4718851D01*
X+819134Y-4723447D01*
X+812816Y-4726380D01*
X+806498Y-4728042D01*
X+800180Y-4728600D01*
X+800000Y-4728600D01*
D20*
X+651080Y-4600660D02*
X+777593Y-4600660D01*
X+1148920Y-4600660D02*
X+1148920Y-4400000D01*
X+1025191Y-4400000D01*
X+651080Y-4400000D02*
X+651080Y-4600660D01*
X+1022407Y-4600660D02*
X+1148920Y-4600660D01*
X+974809Y-4400000D02*
X+825191Y-4400000D01*
X+774809Y-4400000D02*
X+651080Y-4400000D01*
X+822407Y-4600660D02*
X+977593Y-4600660D01*
D70*
X+793320Y-4341580D02*
X+793320Y-4354280D01*
X+806655Y-4366980D01*
X+859995Y-4366980D01*
X+873330Y-4354280D01*
X+873330Y-4290780D01*
X+980010Y-4316180D02*
X+966675Y-4328880D01*
X+926670Y-4328880D01*
X+913335Y-4316180D01*
X+913335Y-4303480D01*
X+926670Y-4290780D01*
X+966675Y-4290780D01*
X+980010Y-4303480D01*
X+980010Y-4354280D01*
X+966675Y-4366980D01*
X+926670Y-4366980D01*
D71*
X-1263900Y-4690500D02*
X-1264031Y-4687342D01*
X-1265097Y-4681024D01*
X-1267328Y-4674706D01*
X-1270973Y-4668388D01*
X-1276548Y-4662149D01*
X-1282866Y-4657553D01*
X-1289184Y-4654620D01*
X-1295502Y-4652958D01*
X-1301820Y-4652400D01*
X-1302000Y-4652400D01*
X-1340100Y-4690500D02*
X-1339969Y-4687342D01*
X-1338903Y-4681024D01*
X-1336672Y-4674706D01*
X-1333027Y-4668388D01*
X-1327452Y-4662149D01*
X-1321134Y-4657553D01*
X-1314816Y-4654620D01*
X-1308498Y-4652958D01*
X-1302180Y-4652400D01*
X-1302000Y-4652400D01*
X-1340100Y-4690500D02*
X-1339969Y-4693658D01*
X-1338903Y-4699976D01*
X-1336672Y-4706294D01*
X-1333027Y-4712612D01*
X-1327452Y-4718851D01*
X-1321134Y-4723447D01*
X-1314816Y-4726380D01*
X-1308498Y-4728042D01*
X-1302180Y-4728600D01*
X-1302000Y-4728600D01*
X-1263900Y-4690500D02*
X-1264031Y-4693658D01*
X-1265097Y-4699976D01*
X-1267328Y-4706294D01*
X-1270973Y-4712612D01*
X-1276548Y-4718851D01*
X-1282866Y-4723447D01*
X-1289184Y-4726380D01*
X-1295502Y-4728042D01*
X-1301820Y-4728600D01*
X-1302000Y-4728600D01*
D20*
X-1450920Y-4600660D02*
X-1324407Y-4600660D01*
X-953080Y-4600660D02*
X-953080Y-4400000D01*
X-1076809Y-4400000D01*
X-1450920Y-4400000D02*
X-1450920Y-4600660D01*
X-1079593Y-4600660D02*
X-953080Y-4600660D01*
X-1127191Y-4400000D02*
X-1276809Y-4400000D01*
X-1327191Y-4400000D02*
X-1450920Y-4400000D01*
X-1279593Y-4600660D02*
X-1124407Y-4600660D01*
D70*
X-1362020Y-4341580D02*
X-1362020Y-4354280D01*
X-1348685Y-4366980D01*
X-1295345Y-4366980D01*
X-1282010Y-4354280D01*
X-1282010Y-4290780D01*
X-1228670Y-4316180D02*
X-1202000Y-4290780D01*
X-1202000Y-4366980D01*
X-1148660Y-4354280D02*
X-1148660Y-4303480D01*
X-1135325Y-4290780D01*
X-1081985Y-4290780D01*
X-1068650Y-4303480D01*
X-1068650Y-4354280D01*
X-1081985Y-4366980D01*
X-1135325Y-4366980D01*
X-1148660Y-4354280D01*
X-1148660Y-4366980D02*
X-1068650Y-4290780D01*
D71*
X-3128900Y-4690500D02*
X-3129031Y-4687342D01*
X-3130097Y-4681024D01*
X-3132328Y-4674706D01*
X-3135973Y-4668388D01*
X-3141548Y-4662149D01*
X-3147866Y-4657553D01*
X-3154184Y-4654620D01*
X-3160502Y-4652958D01*
X-3166820Y-4652400D01*
X-3167000Y-4652400D01*
X-3205100Y-4690500D02*
X-3204969Y-4687342D01*
X-3203903Y-4681024D01*
X-3201672Y-4674706D01*
X-3198027Y-4668388D01*
X-3192452Y-4662149D01*
X-3186134Y-4657553D01*
X-3179816Y-4654620D01*
X-3173498Y-4652958D01*
X-3167180Y-4652400D01*
X-3167000Y-4652400D01*
X-3205100Y-4690500D02*
X-3204969Y-4693658D01*
X-3203903Y-4699976D01*
X-3201672Y-4706294D01*
X-3198027Y-4712612D01*
X-3192452Y-4718851D01*
X-3186134Y-4723447D01*
X-3179816Y-4726380D01*
X-3173498Y-4728042D01*
X-3167180Y-4728600D01*
X-3167000Y-4728600D01*
X-3128900Y-4690500D02*
X-3129031Y-4693658D01*
X-3130097Y-4699976D01*
X-3132328Y-4706294D01*
X-3135973Y-4712612D01*
X-3141548Y-4718851D01*
X-3147866Y-4723447D01*
X-3154184Y-4726380D01*
X-3160502Y-4728042D01*
X-3166820Y-4728600D01*
X-3167000Y-4728600D01*
D20*
X-3315920Y-4600660D02*
X-3189407Y-4600660D01*
X-2818080Y-4600660D02*
X-2818080Y-4400000D01*
X-2941809Y-4400000D01*
X-3315920Y-4400000D02*
X-3315920Y-4600660D01*
X-2944593Y-4600660D02*
X-2818080Y-4600660D01*
X-2992191Y-4400000D02*
X-3141809Y-4400000D01*
X-3192191Y-4400000D02*
X-3315920Y-4400000D01*
X-3144593Y-4600660D02*
X-2989407Y-4600660D01*
D70*
X-3227020Y-4341580D02*
X-3227020Y-4354280D01*
X-3213685Y-4366980D01*
X-3160345Y-4366980D01*
X-3147010Y-4354280D01*
X-3147010Y-4290780D01*
X-3093670Y-4316180D02*
X-3067000Y-4290780D01*
X-3067000Y-4366980D01*
X-2986990Y-4316180D02*
X-2960320Y-4290780D01*
X-2960320Y-4366980D01*
D71*
X-5161900Y-4690500D02*
X-5162031Y-4687342D01*
X-5163097Y-4681024D01*
X-5165328Y-4674706D01*
X-5168973Y-4668388D01*
X-5174548Y-4662149D01*
X-5180866Y-4657553D01*
X-5187184Y-4654620D01*
X-5193502Y-4652958D01*
X-5199820Y-4652400D01*
X-5200000Y-4652400D01*
X-5238100Y-4690500D02*
X-5237969Y-4687342D01*
X-5236903Y-4681024D01*
X-5234672Y-4674706D01*
X-5231027Y-4668388D01*
X-5225452Y-4662149D01*
X-5219134Y-4657553D01*
X-5212816Y-4654620D01*
X-5206498Y-4652958D01*
X-5200180Y-4652400D01*
X-5200000Y-4652400D01*
X-5238100Y-4690500D02*
X-5237969Y-4693658D01*
X-5236903Y-4699976D01*
X-5234672Y-4706294D01*
X-5231027Y-4712612D01*
X-5225452Y-4718851D01*
X-5219134Y-4723447D01*
X-5212816Y-4726380D01*
X-5206498Y-4728042D01*
X-5200180Y-4728600D01*
X-5200000Y-4728600D01*
X-5161900Y-4690500D02*
X-5162031Y-4693658D01*
X-5163097Y-4699976D01*
X-5165328Y-4706294D01*
X-5168973Y-4712612D01*
X-5174548Y-4718851D01*
X-5180866Y-4723447D01*
X-5187184Y-4726380D01*
X-5193502Y-4728042D01*
X-5199820Y-4728600D01*
X-5200000Y-4728600D01*
D20*
X-5348920Y-4600660D02*
X-5222407Y-4600660D01*
X-4851080Y-4600660D02*
X-4851080Y-4400000D01*
X-4974809Y-4400000D01*
X-5348920Y-4400000D02*
X-5348920Y-4600660D01*
X-4977593Y-4600660D02*
X-4851080Y-4600660D01*
X-5025191Y-4400000D02*
X-5174809Y-4400000D01*
X-5225191Y-4400000D02*
X-5348920Y-4400000D01*
X-5177593Y-4600660D02*
X-5022407Y-4600660D01*
D70*
X-5260020Y-4341580D02*
X-5260020Y-4354280D01*
X-5246685Y-4366980D01*
X-5193345Y-4366980D01*
X-5180010Y-4354280D01*
X-5180010Y-4290780D01*
X-5126670Y-4316180D02*
X-5100000Y-4290780D01*
X-5100000Y-4366980D01*
X-5033325Y-4303480D02*
X-5019990Y-4290780D01*
X-4979985Y-4290780D01*
X-4966650Y-4303480D01*
X-4966650Y-4316180D01*
X-4979985Y-4328880D01*
X-5019990Y-4328880D01*
X-5033325Y-4341580D01*
X-5033325Y-4366980D01*
X-4966650Y-4366980D01*
X-4819000Y+3500000D02*
X-4692000Y+3500000D01*
X-4692000Y+3436500D02*
X-4184000Y+3436500D01*
X-4184000Y+3563500D01*
X-4692000Y+3563500D01*
X-4692000Y+3436500D01*
X-4184000Y+3500000D02*
X-4057000Y+3500000D01*
X-4544680Y+3593980D02*
X-4544680Y+3670180D01*
X-4478005Y+3670180D01*
X-4464670Y+3657480D01*
X-4464670Y+3644780D01*
X-4478005Y+3632080D01*
X-4544680Y+3632080D01*
X-4478005Y+3632080D02*
X-4464670Y+3619380D01*
X-4464670Y+3593980D01*
X-4411330Y+3644780D02*
X-4384660Y+3670180D01*
X-4384660Y+3593980D01*
X-2669000Y+3500000D02*
X-2796000Y+3500000D01*
X-3304000Y+3436500D02*
X-2796000Y+3436500D01*
X-2796000Y+3563500D01*
X-3304000Y+3563500D01*
X-3304000Y+3436500D01*
X-3304000Y+3500000D02*
X-3431000Y+3500000D01*
X-3156680Y+3329820D02*
X-3156680Y+3406020D01*
X-3090005Y+3406020D01*
X-3076670Y+3393320D01*
X-3076670Y+3380620D01*
X-3090005Y+3367920D01*
X-3156680Y+3367920D01*
X-3090005Y+3367920D02*
X-3076670Y+3355220D01*
X-3076670Y+3329820D01*
X-3036665Y+3393320D02*
X-3023330Y+3406020D01*
X-2983325Y+3406020D01*
X-2969990Y+3393320D01*
X-2969990Y+3380620D01*
X-2983325Y+3367920D01*
X-3023330Y+3367920D01*
X-3036665Y+3355220D01*
X-3036665Y+3329820D01*
X-2969990Y+3329820D01*
X-1819000Y+3500000D02*
X-1692000Y+3500000D01*
X-1692000Y+3436500D02*
X-1184000Y+3436500D01*
X-1184000Y+3563500D01*
X-1692000Y+3563500D01*
X-1692000Y+3436500D01*
X-1184000Y+3500000D02*
X-1057000Y+3500000D01*
X-1544680Y+3593980D02*
X-1544680Y+3670180D01*
X-1478005Y+3670180D01*
X-1464670Y+3657480D01*
X-1464670Y+3644780D01*
X-1478005Y+3632080D01*
X-1544680Y+3632080D01*
X-1478005Y+3632080D02*
X-1464670Y+3619380D01*
X-1464670Y+3593980D01*
X-1424665Y+3657480D02*
X-1411330Y+3670180D01*
X-1371325Y+3670180D01*
X-1357990Y+3657480D01*
X-1357990Y+3644780D01*
X-1371325Y+3632080D01*
X-1357990Y+3619380D01*
X-1357990Y+3606680D01*
X-1371325Y+3593980D01*
X-1411330Y+3593980D01*
X-1424665Y+3606680D01*
X-1397995Y+3632080D02*
X-1371325Y+3632080D01*
X-389000Y+3500000D02*
X-262000Y+3500000D01*
X-262000Y+3436500D02*
X+246000Y+3436500D01*
X+246000Y+3563500D01*
X-262000Y+3563500D01*
X-262000Y+3436500D01*
X+246000Y+3500000D02*
X+373000Y+3500000D01*
X-114680Y+3593980D02*
X-114680Y+3670180D01*
X-48005Y+3670180D01*
X-34670Y+3657480D01*
X-34670Y+3644780D01*
X-48005Y+3632080D01*
X-114680Y+3632080D01*
X-48005Y+3632080D02*
X-34670Y+3619380D01*
X-34670Y+3593980D01*
X+72010Y+3619380D02*
X-8000Y+3619380D01*
X+45340Y+3670180D01*
X+45340Y+3593980D01*
X+1873000Y+3500000D02*
X+1746000Y+3500000D01*
X+1238000Y+3436500D02*
X+1746000Y+3436500D01*
X+1746000Y+3563500D01*
X+1238000Y+3563500D01*
X+1238000Y+3436500D01*
X+1238000Y+3500000D02*
X+1111000Y+3500000D01*
X+1385320Y+3329820D02*
X+1385320Y+3406020D01*
X+1451995Y+3406020D01*
X+1465330Y+3393320D01*
X+1465330Y+3380620D01*
X+1451995Y+3367920D01*
X+1385320Y+3367920D01*
X+1451995Y+3367920D02*
X+1465330Y+3355220D01*
X+1465330Y+3329820D01*
X+1572010Y+3406020D02*
X+1505335Y+3406020D01*
X+1505335Y+3380620D01*
X+1558675Y+3380620D01*
X+1572010Y+3367920D01*
X+1572010Y+3342520D01*
X+1558675Y+3329820D01*
X+1518670Y+3329820D01*
X+1505335Y+3342520D01*
X+3373000Y+3500000D02*
X+3246000Y+3500000D01*
X+2738000Y+3436500D02*
X+3246000Y+3436500D01*
X+3246000Y+3563500D01*
X+2738000Y+3563500D01*
X+2738000Y+3436500D01*
X+2738000Y+3500000D02*
X+2611000Y+3500000D01*
X+2885320Y+3329820D02*
X+2885320Y+3406020D01*
X+2951995Y+3406020D01*
X+2965330Y+3393320D01*
X+2965330Y+3380620D01*
X+2951995Y+3367920D01*
X+2885320Y+3367920D01*
X+2951995Y+3367920D02*
X+2965330Y+3355220D01*
X+2965330Y+3329820D01*
X+3072010Y+3393320D02*
X+3058675Y+3406020D01*
X+3018670Y+3406020D01*
X+3005335Y+3393320D01*
X+3005335Y+3342520D01*
X+3018670Y+3329820D01*
X+3058675Y+3329820D01*
X+3072010Y+3342520D01*
X+3072010Y+3355220D01*
X+3058675Y+3367920D01*
X+3005335Y+3367920D01*
X+3944000Y+3500000D02*
X+4071000Y+3500000D01*
X+4071000Y+3436500D02*
X+4579000Y+3436500D01*
X+4579000Y+3563500D01*
X+4071000Y+3563500D01*
X+4071000Y+3436500D01*
X+4579000Y+3500000D02*
X+4706000Y+3500000D01*
X+4218320Y+3593980D02*
X+4218320Y+3670180D01*
X+4284995Y+3670180D01*
X+4298330Y+3657480D01*
X+4298330Y+3644780D01*
X+4284995Y+3632080D01*
X+4218320Y+3632080D01*
X+4284995Y+3632080D02*
X+4298330Y+3619380D01*
X+4298330Y+3593980D01*
X+4338335Y+3670180D02*
X+4405010Y+3670180D01*
X+4405010Y+3657480D01*
X+4338335Y+3593980D01*
X+1548000Y-2900000D02*
X+1675000Y-2900000D01*
X+1675000Y-2963500D02*
X+2183000Y-2963500D01*
X+2183000Y-2836500D01*
X+1675000Y-2836500D01*
X+1675000Y-2963500D01*
X+2183000Y-2900000D02*
X+2310000Y-2900000D01*
X+1822320Y-2806020D02*
X+1822320Y-2729820D01*
X+1888995Y-2729820D01*
X+1902330Y-2742520D01*
X+1902330Y-2755220D01*
X+1888995Y-2767920D01*
X+1822320Y-2767920D01*
X+1888995Y-2767920D02*
X+1902330Y-2780620D01*
X+1902330Y-2806020D01*
X+1955670Y-2767920D02*
X+1942335Y-2755220D01*
X+1942335Y-2742520D01*
X+1955670Y-2729820D01*
X+1995675Y-2729820D01*
X+2009010Y-2742520D01*
X+2009010Y-2755220D01*
X+1995675Y-2767920D01*
X+1955670Y-2767920D01*
X+1942335Y-2780620D01*
X+1942335Y-2793320D01*
X+1955670Y-2806020D01*
X+1995675Y-2806020D01*
X+2009010Y-2793320D01*
X+2009010Y-2780620D01*
X+1995675Y-2767920D01*
X-202000Y-2900000D02*
X-75000Y-2900000D01*
X-75000Y-2963500D02*
X+433000Y-2963500D01*
X+433000Y-2836500D01*
X-75000Y-2836500D01*
X-75000Y-2963500D01*
X+433000Y-2900000D02*
X+560000Y-2900000D01*
X+72320Y-2806020D02*
X+72320Y-2729820D01*
X+138995Y-2729820D01*
X+152330Y-2742520D01*
X+152330Y-2755220D01*
X+138995Y-2767920D01*
X+72320Y-2767920D01*
X+138995Y-2767920D02*
X+152330Y-2780620D01*
X+152330Y-2806020D01*
X+259010Y-2755220D02*
X+245675Y-2767920D01*
X+205670Y-2767920D01*
X+192335Y-2755220D01*
X+192335Y-2742520D01*
X+205670Y-2729820D01*
X+245675Y-2729820D01*
X+259010Y-2742520D01*
X+259010Y-2793320D01*
X+245675Y-2806020D01*
X+205670Y-2806020D01*
X-1805000Y-2916000D02*
X-1678000Y-2916000D01*
X-1678000Y-2979500D02*
X-1170000Y-2979500D01*
X-1170000Y-2852500D01*
X-1678000Y-2852500D01*
X-1678000Y-2979500D01*
X-1170000Y-2916000D02*
X-1043000Y-2916000D01*
X-1584020Y-2822020D02*
X-1584020Y-2745820D01*
X-1517345Y-2745820D01*
X-1504010Y-2758520D01*
X-1504010Y-2771220D01*
X-1517345Y-2783920D01*
X-1584020Y-2783920D01*
X-1517345Y-2783920D02*
X-1504010Y-2796620D01*
X-1504010Y-2822020D01*
X-1450670Y-2771220D02*
X-1424000Y-2745820D01*
X-1424000Y-2822020D01*
X-1370660Y-2809320D02*
X-1370660Y-2758520D01*
X-1357325Y-2745820D01*
X-1303985Y-2745820D01*
X-1290650Y-2758520D01*
X-1290650Y-2809320D01*
X-1303985Y-2822020D01*
X-1357325Y-2822020D01*
X-1370660Y-2809320D01*
X-1370660Y-2822020D02*
X-1290650Y-2745820D01*
X-2687000Y-2900000D02*
X-2814000Y-2900000D01*
X-3322000Y-2963500D02*
X-2814000Y-2963500D01*
X-2814000Y-2836500D01*
X-3322000Y-2836500D01*
X-3322000Y-2963500D01*
X-3322000Y-2900000D02*
X-3449000Y-2900000D01*
X-3228020Y-3070180D02*
X-3228020Y-2993980D01*
X-3161345Y-2993980D01*
X-3148010Y-3006680D01*
X-3148010Y-3019380D01*
X-3161345Y-3032080D01*
X-3228020Y-3032080D01*
X-3161345Y-3032080D02*
X-3148010Y-3044780D01*
X-3148010Y-3070180D01*
X-3094670Y-3019380D02*
X-3068000Y-2993980D01*
X-3068000Y-3070180D01*
X-2987990Y-3019380D02*
X-2961320Y-2993980D01*
X-2961320Y-3070180D01*
X-5089000Y-2900000D02*
X-4962000Y-2900000D01*
X-4962000Y-2963500D02*
X-4454000Y-2963500D01*
X-4454000Y-2836500D01*
X-4962000Y-2836500D01*
X-4962000Y-2963500D01*
X-4454000Y-2900000D02*
X-4327000Y-2900000D01*
X-4868020Y-2806020D02*
X-4868020Y-2729820D01*
X-4801345Y-2729820D01*
X-4788010Y-2742520D01*
X-4788010Y-2755220D01*
X-4801345Y-2767920D01*
X-4868020Y-2767920D01*
X-4801345Y-2767920D02*
X-4788010Y-2780620D01*
X-4788010Y-2806020D01*
X-4734670Y-2755220D02*
X-4708000Y-2729820D01*
X-4708000Y-2806020D01*
X-4641325Y-2742520D02*
X-4627990Y-2729820D01*
X-4587985Y-2729820D01*
X-4574650Y-2742520D01*
X-4574650Y-2755220D01*
X-4587985Y-2767920D01*
X-4627990Y-2767920D01*
X-4641325Y-2780620D01*
X-4641325Y-2806020D01*
X-4574650Y-2806020D01*
M02*
