G04 PROTEUS GERBER X2 FILE*
%TF.GenerationSoftware,Labcenter,Proteus,8.16-SP3-Build36097*%
%TF.CreationDate,2024-06-22T10:21:33+00:00*%
%TF.FileFunction,Copper,L1,Top*%
%TF.FilePolarity,Positive*%
%TF.Part,Single*%
%TF.SameCoordinates,{24a379d5-4027-43cf-b872-4d17f73d1947}*%
%FSLAX45Y45*%
%MOMM*%
G01*
%TA.AperFunction,Conductor*%
%ADD10C,0.254000*%
%TA.AperFunction,ViaPad*%
%ADD11C,0.762000*%
%TA.AperFunction,ComponentPad*%
%ADD12C,1.360000*%
%ADD13C,3.175000*%
%ADD14R,0.961660X0.961660*%
%TA.AperFunction,ComponentPad*%
%ADD15R,2.032000X2.032000*%
%TA.AperFunction,WasherPad*%
%ADD16C,1.397000*%
%TA.AperFunction,ComponentPad*%
%ADD17C,1.778000*%
%TA.AperFunction,Profile*%
%ADD18C,0.101600*%
%TD.AperFunction*%
D10*
X-3788000Y+4727000D02*
X-3793300Y+4732300D01*
X-3793300Y+4881500D01*
X+2898000Y-4500000D02*
X+2787500Y-4389500D01*
X+1110500Y-4389500D01*
X+1000000Y-4500000D01*
X-2218500Y+4818000D02*
X-2218500Y+4727000D01*
X-2088000Y+4727000D01*
X-3793300Y+4881500D02*
X-2282000Y+4881500D01*
X-2218500Y+4818000D01*
X-3788000Y+4727000D02*
X-3933000Y+4727000D01*
X-3933000Y+4881500D01*
X-5433500Y+4881500D01*
X-5588000Y+4727000D01*
X-2967000Y-4500000D02*
X-3141000Y-4326000D01*
X-4826000Y-4326000D01*
X-5000000Y-4500000D01*
X-1102000Y-4500000D02*
X-1309000Y-4707000D01*
X-2760000Y-4707000D01*
X-2967000Y-4500000D01*
X+1000000Y-4500000D02*
X+889500Y-4389500D01*
X-991500Y-4389500D01*
X-1102000Y-4500000D01*
X-4946000Y+3500000D02*
X-3942000Y+2496000D01*
X+4100000Y+2496000D01*
X-2536000Y+2278000D02*
X-2500000Y+2242000D01*
X+4100000Y+2242000D01*
X+3306000Y+3992500D02*
X-1647000Y+3992500D01*
X-516000Y+3500000D02*
X-310000Y+3294000D01*
X+1020000Y+3294000D01*
X+1401000Y+3675000D01*
X+2036000Y+3675000D01*
X+2607500Y+3103500D01*
X+3941000Y+3103500D01*
X+2000000Y+3500000D02*
X+2000000Y+3076000D01*
X+2099500Y+2976500D01*
X+4163500Y+2976500D01*
X+4227000Y+2913000D01*
X+4227000Y+1607000D01*
X+4100000Y+1480000D01*
X+2798000Y-2802000D02*
X+2671000Y-2675000D01*
X+1646000Y-2675000D01*
X+1421000Y-2900000D01*
X-1932000Y-2916000D02*
X-1665000Y-3183000D01*
X+4576000Y-3183000D01*
X+4639500Y-3119500D01*
X+4639500Y+19500D01*
X+4576000Y+83000D01*
X+4227000Y+83000D01*
X+4100000Y+210000D01*
X-2560000Y-2900000D02*
X-2409000Y-2749000D01*
X-2409000Y-1913000D01*
X-2345500Y-1849500D01*
X+3814000Y-1849500D01*
X-5216000Y-2900000D02*
X-5216000Y-374500D01*
X-5139500Y-298000D01*
X+4100000Y-298000D01*
X-2254000Y-4000000D02*
X-2254000Y-2583500D01*
X-2155000Y-2484500D01*
X+2167500Y-2484500D01*
X+2576000Y-2076000D01*
X-4250000Y-4000000D02*
X-4250000Y-3749907D01*
X-4123500Y-3623407D01*
X-2468407Y-3623407D01*
X-2345500Y-3500500D01*
X-2345500Y-2357500D01*
X-2282000Y-2294000D01*
X-631000Y-2294000D01*
X-250000Y-1913000D01*
X+2667000Y-1913000D01*
X+2830000Y-2076000D01*
X+3846000Y+4500000D02*
X+1527500Y+4500000D01*
X+1274000Y+4246500D01*
X+5096000Y+4500000D02*
X+4461500Y+3865500D01*
X+2607500Y+3865500D01*
X+1591500Y-4262500D02*
X+3516500Y-4262500D01*
X+3754000Y-4500000D01*
X+2437000Y-2900000D02*
X+4002000Y-2900000D01*
X+4100000Y-2802000D01*
X+4100000Y-1568000D01*
X-930000Y+3500000D02*
X-1105000Y+3675000D01*
X-3755000Y+3675000D01*
X-3930000Y+3500000D01*
X-930000Y+3500000D02*
X-755000Y+3675000D01*
X+325000Y+3675000D01*
X+500000Y+3500000D01*
X+687000Y-2900000D02*
X+525500Y-2738500D01*
X-738500Y-2738500D01*
X-916000Y-2916000D01*
X+2484000Y+3500000D02*
X+2626500Y+3357500D01*
X+4690500Y+3357500D01*
X+4833000Y+3500000D01*
X+2437000Y-2900000D02*
X+2281000Y-3056000D01*
X+843000Y-3056000D01*
X+687000Y-2900000D01*
X+984000Y+3500000D02*
X+1222500Y+3738500D01*
X+2420500Y+3738500D01*
X+2484000Y+3675000D01*
X+2484000Y+3500000D01*
X-3576000Y-2900000D02*
X-4200000Y-2900000D01*
X+500000Y+3500000D02*
X+984000Y+3500000D01*
X+4008000Y-4500000D02*
X+4008000Y-4067000D01*
X+3941000Y-4000000D01*
X+2004000Y-4000000D01*
X+2662000Y+4727000D02*
X+2712800Y+4676200D01*
X+2712800Y+4564000D01*
X+3496500Y+4564000D01*
X+3623500Y+4691000D01*
X+4100000Y+4691000D01*
X+4100000Y+4500000D01*
X+662000Y+4727000D02*
X+825000Y+4564000D01*
X+2662000Y+4564000D01*
X+2662000Y+4727000D01*
X-1250000Y+4500000D02*
X+598000Y+4500000D01*
X+662000Y+4564000D01*
X+662000Y+4727000D01*
X-2838000Y+4727000D02*
X-2599500Y+4727000D01*
X-2119000Y+4246500D01*
X-1313500Y+4246500D01*
X-1250000Y+4310000D01*
X-1250000Y+4500000D01*
X+4000Y-4000000D02*
X+4000Y-3818000D01*
X-59500Y-3754500D01*
X-1754500Y-3754500D01*
X-2000000Y-4000000D01*
X-2838000Y+4727000D02*
X-2838000Y+4579500D01*
X-2917000Y+4500500D01*
X-4361500Y+4500500D01*
X-4588000Y+4727000D01*
X-538000Y+4727000D02*
X-692500Y+4881500D01*
X-2155000Y+4881500D01*
X-2218500Y+4818000D01*
X-250000Y-4000000D02*
X-250000Y-4164269D01*
X-215269Y-4199000D01*
X+512000Y-4199000D01*
X+1099443Y-3611557D01*
X+2083557Y-3611557D01*
X+2099500Y-3627500D01*
X-2000000Y-5250000D02*
X-2000000Y-5060000D01*
X-2035500Y-5024500D01*
X-3770500Y-5024500D01*
X-3996000Y-5250000D01*
X+2004000Y-5250000D02*
X+2004000Y-5072481D01*
X+1981519Y-5050000D01*
X+1980000Y-5050000D01*
X+1954500Y-5024500D01*
X+229500Y-5024500D01*
X+4000Y-5250000D01*
X-538000Y+4727000D02*
X-383500Y+4881500D01*
X+1610500Y+4881500D01*
X+1662000Y+4830000D01*
X+1662000Y+4727000D01*
X+3412000Y+4727000D02*
X+3412001Y+4727001D01*
X+3412001Y+4830000D01*
X+1662000Y+4830000D02*
X+1713500Y+4881500D01*
X+3360501Y+4881500D01*
X+3412001Y+4830000D01*
X+4700000Y+4750000D02*
X+4568500Y+4881500D01*
X+3463501Y+4881500D01*
X+3412001Y+4830000D01*
X+4100000Y+5227000D02*
X+4318500Y+5008500D01*
X+5298385Y+5008500D01*
X+5350000Y+5060115D01*
X+5350000Y+5200000D01*
D11*
X-2536000Y+2278000D03*
X-1647000Y+3992500D03*
X+3306000Y+3992500D03*
X+3941000Y+3103500D03*
X+2798000Y-2802000D03*
X+3814000Y-1849500D03*
X+1274000Y+4246500D03*
X+2607500Y+3865500D03*
X+1591500Y-4262500D03*
X+2099500Y-3627500D03*
D12*
X+1052000Y+2750000D03*
X+798000Y+2750000D03*
X+544000Y+2750000D03*
X+290000Y+2750000D03*
X-1742000Y-2076000D03*
X+36000Y+2750000D03*
X-218000Y+2750000D03*
X-1488000Y-2076000D03*
X+4100000Y+2750000D03*
X+4354000Y+2750000D03*
X-472000Y+2750000D03*
X-726000Y+2750000D03*
X-1132400Y+2750000D03*
X-1386400Y+2750000D03*
X-1640400Y+2750000D03*
X-1894400Y+2750000D03*
X-2148400Y+2750000D03*
X-2402400Y+2750000D03*
X+1560000Y+2750000D03*
X+1814000Y+2750000D03*
X+2068000Y+2750000D03*
X+2322000Y+2750000D03*
X+2576000Y+2750000D03*
X+2830000Y+2750000D03*
X+3084000Y+2750000D03*
X+3338000Y+2750000D03*
X+4100000Y+2496000D03*
X+4354000Y+2496000D03*
X+4100000Y+2242000D03*
X+4354000Y+2242000D03*
X+4100000Y+1988000D03*
X+4354000Y+1988000D03*
X+4100000Y+1734000D03*
X+4354000Y+1734000D03*
X+4100000Y+1480000D03*
X+4354000Y+1480000D03*
X+4100000Y+1226000D03*
X+4354000Y+1226000D03*
X+4100000Y+972000D03*
X+4354000Y+972000D03*
X+4100000Y+718000D03*
X+4354000Y+718000D03*
X+4100000Y+464000D03*
X+4354000Y+464000D03*
X+4100000Y+210000D03*
X+4354000Y+210000D03*
X+4100000Y-44000D03*
X+4354000Y-44000D03*
X+4100000Y-298000D03*
X+4354000Y-298000D03*
X+4100000Y-552000D03*
X+4354000Y-552000D03*
X+4100000Y-806000D03*
X+4354000Y-806000D03*
X+4100000Y-1060000D03*
X+4354000Y-1060000D03*
X+4100000Y-1314000D03*
X+4354000Y-1314000D03*
X-218000Y-2076000D03*
X+36000Y-2076000D03*
X+290000Y-2076000D03*
X+544000Y-2076000D03*
X+798000Y-2076000D03*
X+1052000Y-2076000D03*
X+1306000Y-2076000D03*
X+1560000Y-2076000D03*
X+2068000Y-2076000D03*
X+2322000Y-2076000D03*
X+2576000Y-2076000D03*
X+2830000Y-2076000D03*
X+3084000Y-2076000D03*
X+3338000Y-2076000D03*
X+3592000Y-2076000D03*
X+3846000Y-2076000D03*
X-2910400Y+2750000D03*
D13*
X-3901000Y-2076000D03*
X+1306000Y-1568000D03*
X+1306000Y+1226000D03*
X-3774000Y+2750000D03*
X+4354000Y-2076000D03*
X+3719000Y+2750000D03*
D12*
X-1234000Y-2076000D03*
X-980000Y-2076000D03*
X-2656400Y+2750000D03*
X+4100000Y-1568000D03*
X+4354000Y-1568000D03*
X-2250000Y-2076000D03*
D14*
X-2504000Y-2076000D03*
D12*
X-1996000Y-2076000D03*
X-3418400Y+2750000D03*
X-3164400Y+2750000D03*
X-726000Y-2076000D03*
D15*
X-4842000Y+4727000D03*
X-4588000Y+4727000D03*
X-3092000Y+4727000D03*
X-2838000Y+4727000D03*
X-1504000Y+5250000D03*
X-1250000Y+5250000D03*
X-1504000Y+4500000D03*
X-1250000Y+4500000D03*
X+408000Y+4727000D03*
X+662000Y+4727000D03*
X+2408000Y+4727000D03*
X+2662000Y+4727000D03*
X+3846000Y+5227000D03*
X+4100000Y+5227000D03*
X+3846000Y+4500000D03*
X+4100000Y+4500000D03*
X+5096000Y+4500000D03*
X+5350000Y+4500000D03*
X+5096000Y+5200000D03*
X+5350000Y+5200000D03*
X+3754000Y-4500000D03*
X+4008000Y-4500000D03*
X+1750000Y-5250000D03*
X+2004000Y-5250000D03*
X+1750000Y-4000000D03*
X+2004000Y-4000000D03*
X-250000Y-4000000D03*
X+4000Y-4000000D03*
X-250000Y-5250000D03*
X+4000Y-5250000D03*
X-2254000Y-5250000D03*
X-2000000Y-5250000D03*
X-2254000Y-4000000D03*
X-2000000Y-4000000D03*
X-4250000Y-4000000D03*
X-3996000Y-4000000D03*
X-4250000Y-5250000D03*
X-3996000Y-5250000D03*
D16*
X-5788000Y+4727000D03*
X-5588000Y+4727000D03*
X-3588000Y+4727000D03*
X-3788000Y+4727000D03*
X-1888000Y+4727000D03*
X-2088000Y+4727000D03*
X-338000Y+4727000D03*
X-538000Y+4727000D03*
X+1462000Y+4727000D03*
X+1662000Y+4727000D03*
X+3212000Y+4727000D03*
X+3412000Y+4727000D03*
X+4500000Y+4750000D03*
X+4700000Y+4750000D03*
X+2698000Y-4500000D03*
X+2898000Y-4500000D03*
X+800000Y-4500000D03*
X+1000000Y-4500000D03*
X-1302000Y-4500000D03*
X-1102000Y-4500000D03*
X-3167000Y-4500000D03*
X-2967000Y-4500000D03*
X-5200000Y-4500000D03*
X-5000000Y-4500000D03*
D17*
X-4946000Y+3500000D03*
X-3930000Y+3500000D03*
X-2542000Y+3500000D03*
X-3558000Y+3500000D03*
X-1946000Y+3500000D03*
X-930000Y+3500000D03*
X-516000Y+3500000D03*
X+500000Y+3500000D03*
X+2000000Y+3500000D03*
X+984000Y+3500000D03*
X+3500000Y+3500000D03*
X+2484000Y+3500000D03*
X+3817000Y+3500000D03*
X+4833000Y+3500000D03*
X+1421000Y-2900000D03*
X+2437000Y-2900000D03*
X-329000Y-2900000D03*
X+687000Y-2900000D03*
X-1932000Y-2916000D03*
X-916000Y-2916000D03*
X-2560000Y-2900000D03*
X-3576000Y-2900000D03*
X-5216000Y-2900000D03*
X-4200000Y-2900000D03*
D18*
X-6200000Y-6000000D02*
X+5800000Y-6000000D01*
X+5800000Y+6000000D01*
X-6200000Y+6000000D01*
X-6200000Y-6000000D01*
M02*
