G04 PROTEUS GERBER X2 FILE*
%TF.GenerationSoftware,Labcenter,Proteus,8.16-SP3-Build36097*%
%TF.CreationDate,2024-06-22T10:21:33+00:00*%
%TF.FileFunction,Copper,L2,Bot*%
%TF.FilePolarity,Positive*%
%TF.Part,Single*%
%TF.SameCoordinates,{24a379d5-4027-43cf-b872-4d17f73d1947}*%
%FSLAX45Y45*%
%MOMM*%
G01*
%TA.AperFunction,Conductor*%
%ADD10C,0.254000*%
%TA.AperFunction,ViaPad*%
%ADD11C,0.762000*%
%TA.AperFunction,ComponentPad*%
%ADD12C,1.360000*%
%ADD13C,3.175000*%
%ADD14R,0.961660X0.961660*%
%TA.AperFunction,ComponentPad*%
%ADD15R,2.032000X2.032000*%
%TA.AperFunction,WasherPad*%
%ADD16C,1.397000*%
%TA.AperFunction,ComponentPad*%
%ADD17C,1.778000*%
%TA.AperFunction,Profile*%
%ADD18C,0.101600*%
%TD.AperFunction*%
D10*
X+4700000Y+4750000D02*
X+4700000Y-4583000D01*
X+4576000Y-4707000D01*
X+3105000Y-4707000D01*
X+2898000Y-4500000D01*
X+3412000Y+4727000D02*
X+3412000Y+4056000D01*
X+3687000Y+3781000D01*
X+3687000Y+3357500D01*
X+3750500Y+3294000D01*
X+4036500Y+3294000D01*
X+4100000Y+3230500D01*
X+4100000Y+2750000D01*
X-4946000Y+3500000D02*
X-5788000Y+4342000D01*
X-5788000Y+4727000D01*
X-2542000Y+3500000D02*
X-3588000Y+4546000D01*
X-3588000Y+4727000D01*
X-2542000Y+3500000D02*
X-2542000Y+2284000D01*
X-2536000Y+2278000D01*
X-1946000Y+3500000D02*
X-1647000Y+3799000D01*
X-1647000Y+3992500D01*
X+3306000Y+3992500D02*
X+3306000Y+3738500D01*
X+3369500Y+3675000D01*
X+3568100Y+3675000D01*
X+3631600Y+3611500D01*
X+3631600Y+3312368D01*
X+3750500Y+3193468D01*
X+4033200Y+3193468D01*
X+4033200Y+2976500D01*
X+3992850Y+2936150D01*
X+3992850Y+2095150D01*
X+4100000Y+1988000D01*
X-1946000Y+3500000D02*
X-1946000Y+3738500D01*
X-1888000Y+3796500D01*
X-1888000Y+4727000D01*
X-516000Y+3500000D02*
X-338000Y+3678000D01*
X-338000Y+4727000D01*
X+3941000Y+3103500D02*
X+3941000Y+1893000D01*
X+4100000Y+1734000D01*
X+2000000Y+3500000D02*
X+1462000Y+4038000D01*
X+1462000Y+4727000D01*
X+3500000Y+3500000D02*
X+3500000Y+1826000D01*
X+4100000Y+1226000D01*
X+3500000Y+3500000D02*
X+3323500Y+3500000D01*
X+3212000Y+3611500D01*
X+3212000Y+4727000D01*
X+3817000Y+3500000D02*
X+3817000Y+3992500D01*
X+3687000Y+4122500D01*
X+3687000Y+5389500D01*
X+3750500Y+5453000D01*
X+4436500Y+5453000D01*
X+4500000Y+5389500D01*
X+4500000Y+4750000D01*
X+3817000Y+3500000D02*
X+4148000Y+3500000D01*
X+4227000Y+3421000D01*
X+4227000Y+1099000D01*
X+4100000Y+972000D01*
X+2671000Y-2802000D02*
X+2798000Y-2802000D01*
X+3465000Y-2135000D01*
X+3465000Y+83000D01*
X+4100000Y+718000D01*
X+2671000Y-2802000D02*
X+2671000Y-3881500D01*
X+2698000Y-3908500D01*
X+2698000Y-4500000D01*
X+829500Y-2802000D02*
X+1433000Y-2198500D01*
X+1433000Y-1913000D01*
X+3115500Y-230500D01*
X+3115500Y+781500D01*
X+3179000Y+845000D01*
X+4136000Y+845000D01*
X+4227000Y+754000D01*
X+4227000Y+591000D01*
X+4100000Y+464000D01*
X+829500Y-2802000D02*
X+829500Y-3754500D01*
X+800000Y-3784000D01*
X+800000Y-4500000D01*
X+829500Y-2802000D02*
X+766000Y-2738500D01*
X-167500Y-2738500D01*
X-329000Y-2900000D01*
X-1932000Y-2916000D02*
X-1302000Y-3546000D01*
X-1302000Y-4500000D01*
X-2560000Y-2900000D02*
X-3167000Y-3507000D01*
X-3167000Y-4500000D01*
X+3814000Y-1849500D02*
X+3814000Y-330000D01*
X+4100000Y-44000D01*
X-5216000Y-2900000D02*
X-5216000Y-3056000D01*
X-5200000Y-3072000D01*
X-5200000Y-4500000D01*
X-4842000Y+4727000D02*
X-4842000Y+3992500D01*
X-4778500Y+3929000D01*
X-3361500Y+3929000D01*
X-3298000Y+3865500D01*
X-3298000Y-1849500D01*
X-3234500Y-1913000D01*
X-381000Y-1913000D01*
X-218000Y-2076000D01*
X+36000Y-2076000D02*
X+36000Y+23500D01*
X-2282000Y+2341500D01*
X-2282000Y+3513547D01*
X-3092000Y+4323547D01*
X-3092000Y+4727000D01*
X-2254000Y-4000000D02*
X-2254000Y-5250000D01*
X-4250000Y-4000000D02*
X-4250000Y-5250000D01*
X-1504000Y+4500000D02*
X-1504000Y+2120173D01*
X+290000Y+326173D01*
X+290000Y-2076000D01*
X-1504000Y+4500000D02*
X-1504000Y+5250000D01*
X+408000Y+4727000D02*
X+408000Y+4001500D01*
X+671000Y+3738500D01*
X+671000Y-1949000D01*
X+544000Y-2076000D01*
X+2408000Y+4727000D02*
X+2190000Y+4945000D01*
X+1210500Y+4945000D01*
X+1147000Y+4881500D01*
X+1147000Y+3198500D01*
X+925000Y+2976500D01*
X+925000Y-1949000D01*
X+798000Y-2076000D01*
X+1274000Y+4246500D02*
X+1274000Y+2087500D01*
X+1052000Y+1865500D01*
X+1052000Y-2076000D01*
X+3846000Y+4500000D02*
X+3846000Y+5227000D01*
X+2607500Y+3865500D02*
X+2195000Y+3453000D01*
X+2195000Y-960500D01*
X+1306000Y-1849500D01*
X+1306000Y-2076000D01*
X+5096000Y+4500000D02*
X+5096000Y+5200000D01*
X+1591500Y-4262500D02*
X+1560000Y-4231000D01*
X+1560000Y-2076000D01*
X+1750000Y-4000000D02*
X+1750000Y-2394000D01*
X+2068000Y-2076000D01*
X+1750000Y-4000000D02*
X+1750000Y-5250000D01*
X-250000Y-4000000D02*
X-250000Y-5250000D01*
X+500000Y+3500000D02*
X+500000Y+3357500D01*
X+417000Y+3274500D01*
X+417000Y-2198500D01*
X+321500Y-2294000D01*
X-294000Y-2294000D01*
X-916000Y-2916000D01*
X-1075500Y-2916000D01*
X-1253000Y-2738500D01*
X-3414500Y-2738500D01*
X-3576000Y-2900000D01*
X+4354000Y-1568000D02*
X+4512500Y-1409500D01*
X+4512500Y+4087500D01*
X+4100000Y+4500000D01*
X+4354000Y-1568000D02*
X+4008000Y-1914000D01*
X+4008000Y-4500000D01*
X+2004000Y-5250000D02*
X+2004000Y-4000000D01*
X-2000000Y-5250000D02*
X-2000000Y-4000000D01*
X-3996000Y-5250000D02*
X-3996000Y-4000000D01*
X+4000Y-4000000D02*
X+4000Y-5250000D01*
X-1250000Y+4500000D02*
X-1250000Y+5250000D01*
X+4100000Y+5227000D02*
X+4100000Y+4500000D01*
X+5350000Y+5200000D02*
X+5350000Y+4500000D01*
X+2099500Y-3627500D02*
X+2099500Y-2484500D01*
X+2322000Y-2262000D01*
X+2322000Y-2076000D01*
D11*
X-2536000Y+2278000D03*
X-1647000Y+3992500D03*
X+3306000Y+3992500D03*
X+3941000Y+3103500D03*
X+2798000Y-2802000D03*
X+3814000Y-1849500D03*
X+1274000Y+4246500D03*
X+2607500Y+3865500D03*
X+1591500Y-4262500D03*
X+2099500Y-3627500D03*
D12*
X+1052000Y+2750000D03*
X+798000Y+2750000D03*
X+544000Y+2750000D03*
X+290000Y+2750000D03*
X-1742000Y-2076000D03*
X+36000Y+2750000D03*
X-218000Y+2750000D03*
X-1488000Y-2076000D03*
X+4100000Y+2750000D03*
X+4354000Y+2750000D03*
X-472000Y+2750000D03*
X-726000Y+2750000D03*
X-1132400Y+2750000D03*
X-1386400Y+2750000D03*
X-1640400Y+2750000D03*
X-1894400Y+2750000D03*
X-2148400Y+2750000D03*
X-2402400Y+2750000D03*
X+1560000Y+2750000D03*
X+1814000Y+2750000D03*
X+2068000Y+2750000D03*
X+2322000Y+2750000D03*
X+2576000Y+2750000D03*
X+2830000Y+2750000D03*
X+3084000Y+2750000D03*
X+3338000Y+2750000D03*
X+4100000Y+2496000D03*
X+4354000Y+2496000D03*
X+4100000Y+2242000D03*
X+4354000Y+2242000D03*
X+4100000Y+1988000D03*
X+4354000Y+1988000D03*
X+4100000Y+1734000D03*
X+4354000Y+1734000D03*
X+4100000Y+1480000D03*
X+4354000Y+1480000D03*
X+4100000Y+1226000D03*
X+4354000Y+1226000D03*
X+4100000Y+972000D03*
X+4354000Y+972000D03*
X+4100000Y+718000D03*
X+4354000Y+718000D03*
X+4100000Y+464000D03*
X+4354000Y+464000D03*
X+4100000Y+210000D03*
X+4354000Y+210000D03*
X+4100000Y-44000D03*
X+4354000Y-44000D03*
X+4100000Y-298000D03*
X+4354000Y-298000D03*
X+4100000Y-552000D03*
X+4354000Y-552000D03*
X+4100000Y-806000D03*
X+4354000Y-806000D03*
X+4100000Y-1060000D03*
X+4354000Y-1060000D03*
X+4100000Y-1314000D03*
X+4354000Y-1314000D03*
X-218000Y-2076000D03*
X+36000Y-2076000D03*
X+290000Y-2076000D03*
X+544000Y-2076000D03*
X+798000Y-2076000D03*
X+1052000Y-2076000D03*
X+1306000Y-2076000D03*
X+1560000Y-2076000D03*
X+2068000Y-2076000D03*
X+2322000Y-2076000D03*
X+2576000Y-2076000D03*
X+2830000Y-2076000D03*
X+3084000Y-2076000D03*
X+3338000Y-2076000D03*
X+3592000Y-2076000D03*
X+3846000Y-2076000D03*
X-2910400Y+2750000D03*
D13*
X-3901000Y-2076000D03*
X+1306000Y-1568000D03*
X+1306000Y+1226000D03*
X-3774000Y+2750000D03*
X+4354000Y-2076000D03*
X+3719000Y+2750000D03*
D12*
X-1234000Y-2076000D03*
X-980000Y-2076000D03*
X-2656400Y+2750000D03*
X+4100000Y-1568000D03*
X+4354000Y-1568000D03*
X-2250000Y-2076000D03*
D14*
X-2504000Y-2076000D03*
D12*
X-1996000Y-2076000D03*
X-3418400Y+2750000D03*
X-3164400Y+2750000D03*
X-726000Y-2076000D03*
D15*
X-4842000Y+4727000D03*
X-4588000Y+4727000D03*
X-3092000Y+4727000D03*
X-2838000Y+4727000D03*
X-1504000Y+5250000D03*
X-1250000Y+5250000D03*
X-1504000Y+4500000D03*
X-1250000Y+4500000D03*
X+408000Y+4727000D03*
X+662000Y+4727000D03*
X+2408000Y+4727000D03*
X+2662000Y+4727000D03*
X+3846000Y+5227000D03*
X+4100000Y+5227000D03*
X+3846000Y+4500000D03*
X+4100000Y+4500000D03*
X+5096000Y+4500000D03*
X+5350000Y+4500000D03*
X+5096000Y+5200000D03*
X+5350000Y+5200000D03*
X+3754000Y-4500000D03*
X+4008000Y-4500000D03*
X+1750000Y-5250000D03*
X+2004000Y-5250000D03*
X+1750000Y-4000000D03*
X+2004000Y-4000000D03*
X-250000Y-4000000D03*
X+4000Y-4000000D03*
X-250000Y-5250000D03*
X+4000Y-5250000D03*
X-2254000Y-5250000D03*
X-2000000Y-5250000D03*
X-2254000Y-4000000D03*
X-2000000Y-4000000D03*
X-4250000Y-4000000D03*
X-3996000Y-4000000D03*
X-4250000Y-5250000D03*
X-3996000Y-5250000D03*
D16*
X-5788000Y+4727000D03*
X-5588000Y+4727000D03*
X-3588000Y+4727000D03*
X-3788000Y+4727000D03*
X-1888000Y+4727000D03*
X-2088000Y+4727000D03*
X-338000Y+4727000D03*
X-538000Y+4727000D03*
X+1462000Y+4727000D03*
X+1662000Y+4727000D03*
X+3212000Y+4727000D03*
X+3412000Y+4727000D03*
X+4500000Y+4750000D03*
X+4700000Y+4750000D03*
X+2698000Y-4500000D03*
X+2898000Y-4500000D03*
X+800000Y-4500000D03*
X+1000000Y-4500000D03*
X-1302000Y-4500000D03*
X-1102000Y-4500000D03*
X-3167000Y-4500000D03*
X-2967000Y-4500000D03*
X-5200000Y-4500000D03*
X-5000000Y-4500000D03*
D17*
X-4946000Y+3500000D03*
X-3930000Y+3500000D03*
X-2542000Y+3500000D03*
X-3558000Y+3500000D03*
X-1946000Y+3500000D03*
X-930000Y+3500000D03*
X-516000Y+3500000D03*
X+500000Y+3500000D03*
X+2000000Y+3500000D03*
X+984000Y+3500000D03*
X+3500000Y+3500000D03*
X+2484000Y+3500000D03*
X+3817000Y+3500000D03*
X+4833000Y+3500000D03*
X+1421000Y-2900000D03*
X+2437000Y-2900000D03*
X-329000Y-2900000D03*
X+687000Y-2900000D03*
X-1932000Y-2916000D03*
X-916000Y-2916000D03*
X-2560000Y-2900000D03*
X-3576000Y-2900000D03*
X-5216000Y-2900000D03*
X-4200000Y-2900000D03*
D18*
X-6200000Y-6000000D02*
X+5800000Y-6000000D01*
X+5800000Y+6000000D01*
X-6200000Y+6000000D01*
X-6200000Y-6000000D01*
M02*
